<?xml version="1.0" encoding="UTF-8"?>
<svg version="1.1" xmlns="http://www.w3.org/2000/svg" width="1600" height="1600">
<path d="M0 0 C528 0 1056 0 1600 0 C1600 528 1600 1056 1600 1600 C1072 1600 544 1600 0 1600 C0 1072 0 544 0 0 Z " fill="none" transform="translate(0,0)"/>
<path d="M0 0 C1.77734375 0.18359375 1.77734375 0.18359375 4 1 C5.75390625 3.16015625 5.75390625 3.16015625 7.5625 6.0625 C8.60470703 7.69251953 8.60470703 7.69251953 9.66796875 9.35546875 C10.22943604 10.23984619 10.22943604 10.23984619 10.80224609 11.14208984 C12.92409897 14.43342706 15.1513421 17.65194092 17.375 20.875 C17.84454102 21.55731689 18.31408203 22.23963379 18.79785156 22.94262695 C21.76311989 27.24064011 24.7686728 31.50733482 27.8125 35.75 C38.07483058 50.05575034 48.07024399 64.53658908 57.94335938 79.11328125 C62.4906583 85.81544135 67.12581126 92.43830559 71.8671875 99.00390625 C74.71661075 103.00666748 77.425206 107.09584403 80.1328125 111.1953125 C83.01089068 115.51845086 86.0048985 119.75751069 89 124 C93.08759228 129.82172234 97.15140462 135.65919088 101.19335938 141.51269531 C103.45480875 144.7827289 105.73014316 148.04242557 108.01953125 151.29296875 C115.31694638 161.66057819 122.48878533 172.10727647 129.59017944 182.60964966 C135.88527158 191.91752063 142.26009134 201.16444814 148.69677734 210.37524414 C152.58987894 215.95197025 156.40547423 221.56604699 160.14331055 227.24804688 C161.93959117 229.91046308 163.80959609 232.49578427 165.71875 235.078125 C170.71090079 241.91420269 175.34763052 248.96964169 180 256.0390625 C183.91568423 261.95847578 187.94414745 267.75996694 192.16503906 273.46630859 C194.10161721 276.1403118 195.93445236 278.86765742 197.75 281.625 C202.01883529 288.09140138 206.48837372 294.40835053 210.97265625 300.7265625 C216.86151305 309.02934627 222.65375177 317.39340329 228.375 325.8125 C232.49730951 331.87085431 236.62629682 337.92309756 240.8125 343.9375 C244.36775329 349.0535962 247.82801872 354.22744824 251.27294922 359.41796875 C255.04373886 365.08946976 258.91515726 370.68797387 262.80517578 376.27832031 C265.00566721 379.44911425 267.18971591 382.63121514 269.375 385.8125 C269.83640381 386.484021 270.29780762 387.15554199 270.77319336 387.84741211 C271.71311804 389.21545037 272.65297776 390.58353327 273.59277344 391.95166016 C275.4382009 394.63783927 277.28450052 397.32341796 279.13110352 400.00878906 C280.04083292 401.33209083 280.95017789 402.65565697 281.85913086 403.97949219 C284.22965327 407.43107469 286.60729928 410.87743927 288.99609375 414.31640625 C289.48851562 415.02732422 289.9809375 415.73824219 290.48828125 416.47070312 C291.42216318 417.81866478 292.35819842 419.1651384 293.296875 420.50976562 C296.09978754 424.56171019 298.60977583 428.69094158 301 433 C300.14322917 434.34635417 299.28645833 435.69270833 298.4296875 437.0390625 C297.86999268 437.91860596 297.31029785 438.79814941 296.73364258 439.7043457 C295.47835546 441.67689264 294.22298223 443.64938477 292.9675293 445.62182617 C289.75632562 450.66720487 286.5462954 455.71331847 283.33984375 460.76171875 C275.83737623 472.57048902 268.27766585 484.33977472 260.65429688 496.07080078 C252.43977239 508.71466779 244.32110947 521.41826077 236.37109375 534.23046875 C232.03885484 541.20995354 227.62583933 548.1118752 223.03735352 554.92578125 C217.43340745 563.28229528 212.08782206 571.80635797 206.70654297 580.30712891 C204.95281696 583.07445334 203.19376305 585.83833255 201.43359375 588.6015625 C198.83730586 592.6794336 196.25386869 596.7651171 193.6784668 600.85620117 C189.39279852 607.66302314 185.07643432 614.44679636 180.6875 621.1875 C174.24087618 631.09964307 168.00760866 641.14450402 161.75976562 651.18261719 C160.14620651 653.76592353 158.52178652 656.34184626 156.890625 658.9140625 C156.42857666 659.64488037 155.96652832 660.37569824 155.49047852 661.12866211 C154.65307093 662.45185082 153.81265959 663.77314591 152.96850586 665.09204102 C150.89354762 668.3794776 149.46321482 671.34196296 148 675 C197.83 675 247.66 675 299 675 C299.66 673.02 300.32 671.04 301 669 C301.81862253 667.42416784 302.68895692 665.87409325 303.609375 664.35546875 C304.11726563 663.51306641 304.62515625 662.67066406 305.1484375 661.80273438 C305.94121094 660.50819336 305.94121094 660.50819336 306.75 659.1875 C307.26304687 658.33607422 307.77609375 657.48464844 308.3046875 656.60742188 C310.80621059 652.48116582 313.36911501 648.41905622 316.078125 644.42578125 C318.52774362 640.79238714 320.68381368 637.06733754 322.77587891 633.21923828 C324.79717901 629.55477519 326.99368125 626.00046542 329.1875 622.4375 C329.66380859 621.66083984 330.14011719 620.88417969 330.63085938 620.08398438 C334.13278443 614.38349975 337.67362851 608.70787114 341.22924805 603.04077148 C344.3565579 598.04951843 347.4354465 593.02998743 350.5 588 C357.93297867 575.80658892 365.53296561 563.72072266 373.171875 551.65551758 C376.10634385 547.01566943 379.02211925 542.36475766 381.921875 537.703125 C382.58872314 536.63191406 383.25557129 535.56070313 383.94262695 534.45703125 C385.24261986 532.36711486 386.54072866 530.27602495 387.83666992 528.18359375 C394.47533429 517.51459866 394.47533429 517.51459866 398 513 C398.66 513 399.32 513 400 513 C407.03055332 525.08795407 413.72485714 537.34471187 419.9375 549.875 C425.32874697 560.74709916 430.9212182 571.53162743 437.0625 582 C440.58712674 588.07450701 443.5592751 594.32468019 446.50634766 600.69580078 C449.09262248 606.23089173 451.91230893 611.56853663 454.9375 616.875 C460.05780466 625.87631259 464.4444201 635.16880166 468.8359375 644.54150391 C471.46650962 650.09726341 474.25261834 655.57625949 477.0234375 661.06298828 C479.06934884 665.12105342 481.09844866 669.18761067 483.12353516 673.25610352 C484.67086558 676.3611932 486.23547838 679.45292012 487.8359375 682.53125 C488.38507813 683.5934375 488.93421875 684.655625 489.5 685.75 C489.9846875 686.67296875 490.469375 687.5959375 490.96875 688.546875 C492 691 492 691 492 695 C489.64364919 694.616481 488.31331664 694.31496336 486.60644531 692.59912109 C486.18459961 691.99664551 485.76275391 691.39416992 485.328125 690.7734375 C484.83699219 690.0832251 484.34585937 689.3930127 483.83984375 688.68188477 C483.31519531 687.92061279 482.79054688 687.15934082 482.25 686.375 C481.68925781 685.57956787 481.12851562 684.78413574 480.55078125 683.96459961 C478.68938294 681.31735111 476.84457366 678.65899345 475 676 C473.68297093 674.11801405 472.36525114 672.2365113 471.046875 670.35546875 C463.62790661 659.74859921 456.29408985 649.08364994 449 638.390625 C447.11249111 635.62436516 445.21797278 632.86329054 443.3125 630.109375 C433.78821012 616.34064172 424.55527409 602.37674472 415.30207825 588.42506409 C413.64741973 585.93117525 411.99097324 583.43847693 410.33425903 580.94595337 C409.53166865 579.73737884 408.72996341 578.52821601 407.9291687 577.31845093 C406.81163037 575.63019249 405.69103953 573.94395585 404.5703125 572.2578125 C403.60762451 570.80592529 403.60762451 570.80592529 402.62548828 569.32470703 C401.06416895 566.94796953 401.06416895 566.94796953 399 565 C398.50971313 565.95084473 398.50971313 565.95084473 398.00952148 566.92089844 C387.26082976 587.73408523 387.26082976 587.73408523 383.25 594.4375 C380.80090268 598.53682243 378.60190868 602.71502363 376.5 607 C372.76014099 614.60409731 368.81265574 622.0924946 364.8125 629.5625 C364.49121124 630.16255859 364.16992249 630.76261719 363.83889771 631.38085938 C358.78799187 640.79849214 353.578664 650.11842906 348.2824707 659.40063477 C345.24538142 664.73930892 342.39451993 670.11287463 339.72265625 675.64453125 C335.64245106 683.59214182 331.09899395 691.30276633 326.66577148 699.05737305 C325.23032205 701.59313035 323.8100965 704.13628405 322.39588928 706.68391418 C321.94685777 707.49267407 321.49782625 708.30143396 321.03518772 709.13470173 C320.69357577 709.75025016 320.35196383 710.36579859 320 711 C302.06250905 711.03128867 284.12501432 711.05130941 266.1875 711.0625 C265.17383472 711.06315145 265.17383472 711.06315145 264.13969135 711.06381607 C220.38228278 711.09116194 176.63054284 710.9119828 132.875 710.5 C131.60428524 710.48804218 130.33357048 710.47608437 129.02434921 710.46376419 C113.68280068 710.31855578 98.34135573 710.16429761 83 710 C84.28350108 706.70148412 85.60136778 703.8665202 87.6171875 700.953125 C88.39473389 699.8225769 88.39473389 699.8225769 89.18798828 698.66918945 C89.74470215 697.87085693 90.30141602 697.07252441 90.875 696.25 C91.45362793 695.41235107 92.03225586 694.57470215 92.62841797 693.71166992 C96.92141644 687.5106072 101.26601059 681.34593289 105.62744141 675.19287109 C109.32578293 669.97203959 112.9642395 664.71294929 116.57910156 659.43408203 C120.64788787 653.49767968 124.75976826 647.59177255 128.875 641.6875 C134.361991 633.8130938 139.80855405 625.9130831 145.21313477 617.98193359 C149.03039658 612.3901704 152.91275887 606.84694515 156.8125 601.3125 C162.7131644 592.9268672 168.42358082 584.42368854 174.09106445 575.87915039 C178.87631021 568.66838646 183.72953363 561.50837685 188.63134766 554.37646484 C191.43559988 550.29428109 194.21017158 546.1967378 196.9375 542.0625 C200.48806788 536.70286899 204.17741787 531.44608736 207.875 526.1875 C212.41566979 519.72840621 216.88914068 513.23655838 221.24389648 506.65087891 C227.69860432 496.89995469 234.35705661 487.28490506 240.9921875 477.65625 C247.10350102 468.78690863 253.13308132 459.87008528 259.05859375 450.875 C259.74050781 449.84375 260.42242188 448.8125 261.125 447.75 C261.77597656 446.76515625 262.42695312 445.7803125 263.09765625 444.765625 C265.26560366 441.61386573 267.59928439 438.64084759 270.06640625 435.71875 C271.19989047 434.04718067 271.19989047 434.04718067 270.70874023 432.14599609 C269.93581169 429.80564406 268.92436385 428.01867384 267.59375 425.9453125 C267.10197266 425.17316406 266.61019531 424.40101563 266.10351562 423.60546875 C265.30977539 422.37763672 265.30977539 422.37763672 264.5 421.125 C263.68305664 419.84689453 263.68305664 419.84689453 262.84960938 418.54296875 C261.23854114 416.02508302 259.62033403 413.51193004 258 411 C257.2081082 409.76837389 256.41641498 408.53662006 255.625 407.3046875 C254.56037093 405.64903273 253.49573267 403.99338257 252.42895508 402.33911133 C247.75007544 395.07763176 243.15474884 387.76313088 238.54833984 380.45556641 C236.03457304 376.46889556 233.51718478 372.48451329 231 368.5 C227.9629584 363.69259265 224.92682555 358.88462228 221.89453125 354.07421875 C216.63579922 345.73455477 211.3541989 337.41127085 206.01171875 329.125 C203.59291074 325.36762833 201.19629531 321.59646503 198.80078125 317.82421875 C197.14764035 315.23154875 195.48364048 312.64612183 193.81640625 310.0625 C190.16537483 304.40276963 186.56036919 298.71723053 183 293 C179.55258932 287.46431121 176.06139789 281.96124204 172.52416992 276.48242188 C168.91052387 270.87802939 165.35378987 265.23829383 161.79785156 259.59716797 C157.84154529 253.32409456 153.86153522 247.06639739 149.875 240.8125 C145.78353666 234.39277 141.71178357 227.96206309 137.6875 221.5 C132.06385006 212.4765521 126.32171014 203.53363968 120.48828125 194.64453125 C114.15450558 184.98530031 107.89107524 175.30710236 101.91796875 165.42016602 C98.90814223 160.44937501 95.80159457 155.55322709 92.625 150.6875 C87.4426581 142.74302902 82.44755032 134.69032321 77.46875 126.6171875 C69.23616469 113.26999028 60.94243309 99.96089937 52.42578125 86.79296875 C48.45890302 80.62169612 44.6013326 74.38070782 40.71875 68.15625 C36.8312947 61.92545837 32.92841182 55.70504422 29 49.5 C23.74530401 41.19890837 18.53546059 32.87017121 13.33789062 24.53320312 C12.74556641 23.58380859 12.15324219 22.63441406 11.54296875 21.65625 C10.96337402 20.72425781 10.3837793 19.79226563 9.78662109 18.83203125 C8.55454845 16.87903279 7.30084455 14.93957092 6.02978516 13.01171875 C5.39733887 12.04878906 4.76489258 11.08585937 4.11328125 10.09375 C3.25343628 8.80500977 3.25343628 8.80500977 2.3762207 7.49023438 C0.97042573 4.94648616 0.40073667 2.86249632 0 0 Z " fill="#02C5C5" transform="translate(402,304)"/>
<path d="M0 0 C1.94472702 0.00213753 1.94472702 0.00213753 3.92874146 0.00431824 C5.01534892 0.00150471 5.01534892 0.00150471 6.12390804 -0.00136566 C8.58646011 -0.00507407 11.04873308 0.00586286 13.51126099 0.01676941 C15.30094889 0.01763073 17.09063732 0.01770431 18.88032532 0.01705933 C23.83849569 0.01823473 28.79655061 0.03284663 33.75468826 0.05000305 C37.95004895 0.0630127 42.14540737 0.06858228 46.34078312 0.07444191 C108.90086119 0.16769498 171.46127717 0.73718952 234.01907349 1.24723816 C233.06869691 2.84448666 232.11662716 4.44072778 231.16384888 6.0365448 C230.63384781 6.92555984 230.10384674 7.81457489 229.55778503 8.73052979 C227.65750176 11.83862294 225.60967029 14.74529296 223.45657349 17.68473816 C219.36120468 23.32966307 215.38463982 29.04720434 211.45657349 34.80973816 C210.89824829 35.62829285 210.3399231 36.44684753 209.76467896 37.29020691 C208.67583602 38.88679214 207.58712703 40.48346874 206.49856567 42.08024597 C201.98351719 48.69337639 197.41072567 55.26628662 192.81204224 61.82145691 C185.80618425 71.80798902 178.85954556 81.83075094 171.98391724 91.90739441 C167.38320146 98.64893542 162.73013027 105.35416062 158.06594849 112.05192566 C152.16168769 120.54775131 146.34790627 129.10407432 140.53421021 137.66203308 C133.07164528 148.64635902 125.58955019 159.61734397 118.05422974 170.55192566 C113.35025597 177.37819075 108.68642027 184.22444373 104.10501099 191.13395691 C101.64988531 194.79825497 99.14957836 198.42979045 96.64407349 202.05973816 C93.14188116 207.13563977 89.67696179 212.23255311 86.26907349 217.37223816 C77.89678105 229.99087864 69.30389212 242.46233321 60.73928833 254.95085144 C59.64864992 256.54392239 58.56036587 258.13860816 57.47463989 259.73503113 C55.14433058 263.16109256 52.8008682 266.56864868 50.36282349 269.91911316 C49.61001099 270.97614441 48.85719849 272.03317566 48.08157349 273.12223816 C47.43317505 274.00653503 46.78477661 274.89083191 46.11672974 275.80192566 C44.7681064 278.16347622 44.7681064 278.16347622 45.49954224 280.52067566 C47.66493538 284.40613687 49.92532833 288.21676514 52.26907349 291.99723816 C52.76705444 292.80636658 53.2650354 293.615495 53.77810669 294.44914246 C56.62682183 299.05928754 59.53951001 303.61094435 62.58938599 308.09098816 C64.32368376 310.70665038 65.94998318 313.3787848 67.58157349 316.05973816 C71.08524219 321.79423224 74.71873664 327.43392869 78.39407349 333.05973816 C83.21838798 340.44620843 87.95673074 347.87781616 92.60501099 355.37614441 C95.70051933 360.36009915 98.86461024 365.30048534 102.01907349 370.24723816 C103.18593922 372.0804448 104.35260796 373.91377684 105.51907349 375.74723816 C106.09657349 376.65473816 106.67407349 377.56223816 107.26907349 378.49723816 C109.01907349 381.24723816 110.76907349 383.99723816 112.51907349 386.74723816 C113.09649292 387.65457703 113.67391235 388.56191589 114.26882935 389.49674988 C115.43643618 391.33163041 116.60391648 393.16659147 117.77127075 395.00163269 C120.67252513 399.56195978 123.57590562 404.12090407 126.48391724 408.67692566 C136.91748646 425.03237037 136.91748646 425.03237037 141.20657349 432.05973816 C145.59580242 439.24639412 150.20226909 446.28979375 154.7895813 453.35075378 C161.10126639 463.08649044 167.24563393 472.93178878 173.43850708 482.74333191 C174.9715361 485.17193025 176.50496885 487.60027301 178.03860474 490.02848816 C178.53134888 490.80869324 179.02409302 491.58889832 179.5317688 492.39274597 C180.52175806 493.95995813 181.51199169 495.52701594 182.50247192 497.09391785 C185.09643427 501.1983317 187.68488223 505.30608486 190.26516724 509.41911316 C190.79948364 510.26924988 191.33380005 511.1193866 191.88430786 511.99528503 C192.89906867 513.61007833 193.9122093 515.22589144 194.92337036 516.84294128 C197.10519384 520.31140337 199.32362938 523.7199171 201.72610474 527.04020691 C203.44753818 529.44786766 204.9172095 531.69720736 206.26907349 534.30973816 C209.41315712 540.09485204 213.03789461 545.56242668 216.61917114 551.08171082 C225.05674032 564.13389753 233.32024799 577.29762397 241.5461731 590.48381042 C246.85538557 598.99334236 252.20351746 607.47766757 257.56741333 615.95280457 C260.55556038 620.67574536 263.53847444 625.40199429 266.52200317 630.12785339 C269.00647557 634.06267898 271.49293544 637.99621716 273.98391724 641.92692566 C279.76048594 651.04782361 285.47800501 660.20265487 291.150177 669.38883972 C294.86741575 675.40292252 298.61707499 681.39551479 302.39407349 687.37223816 C302.89012085 688.15872742 303.38616821 688.94521667 303.89724731 689.75553894 C306.00260643 693.08757276 308.11644952 696.4114061 310.28860474 699.70036316 C310.92153442 700.66458191 311.55446411 701.62880066 312.20657349 702.62223816 C312.73637817 703.41372253 313.26618286 704.20520691 313.81204224 705.02067566 C315.12188702 707.4368942 315.6220893 709.54009297 316.01907349 712.24723816 C312.51369655 711.64456417 312.09816839 711.346576 309.71438599 708.35270691 C308.8467206 707.05392986 307.99079484 705.74726549 307.14407349 704.43473816 C306.16613995 702.96516682 305.18691241 701.49645598 304.20657349 700.02848816 C303.68965942 699.24860535 303.17274536 698.46872253 302.64016724 697.66520691 C299.87538002 693.54134356 297.00453122 689.49253233 294.14407349 685.43473816 C289.01290728 678.12698918 283.94772478 670.7772516 278.91848755 663.39909363 C274.36844098 656.7340618 269.7455807 650.12173202 265.10891724 643.51676941 C261.10346611 637.80744041 257.1386571 632.07206257 253.19778442 626.31803894 C249.54879097 620.99846994 245.8503863 615.71448565 242.14407349 610.43473816 C237.06557869 603.19777959 232.04474283 595.92449059 227.06570435 588.61882019 C222.653817 582.15357224 218.18483081 575.72914321 213.70657349 569.30973816 C209.03838069 562.61529292 204.41128939 555.9051141 199.91360474 549.09489441 C193.38572957 539.28289235 186.60270314 529.64200885 179.83157349 519.99723816 C175.42868118 513.72519903 171.0923836 507.42398668 166.87063599 501.02848816 C163.33261685 495.71399528 159.66542102 490.48768599 156.01907349 485.24723816 C150.29842219 477.00992326 144.61699498 468.74688996 138.95755005 460.467453 C135.48568754 455.38876975 132.00676158 450.3150651 128.51907349 445.24723816 C123.95236799 438.61090508 119.4020695 431.96345064 114.85501099 425.31364441 C110.97626444 419.64258607 107.08731401 413.97865164 103.19192505 408.3190155 C99.54002067 403.01089161 95.90407095 397.69194906 92.26907349 392.37223816 C89.04061023 387.64856497 85.8122507 382.92615825 82.51907349 378.24723816 C77.51469058 371.13509792 72.63672121 363.93505685 67.73196411 356.7540741 C66.09455172 354.35770146 64.45562806 351.96237243 62.81594849 349.56755066 C58.24195304 342.88692453 53.66981523 336.20510546 49.11282349 329.51286316 C48.45201782 328.54260193 47.79121216 327.5723407 47.11038208 326.57267761 C45.84189234 324.70963252 44.57394803 322.84621589 43.30667114 320.98234558 C39.82588163 315.87002551 36.30464049 310.78888807 32.75100708 305.72697449 C29.31155178 300.80245412 25.94196633 295.82989768 22.56204224 290.86442566 C22.0167688 290.06520691 21.47149536 289.26598816 20.90969849 288.44255066 C20.42533325 287.73114929 19.94096802 287.01974792 19.44192505 286.28678894 C18.44832192 284.86253352 17.39805159 283.47689806 16.30813599 282.12492371 C15.88274536 281.50528748 15.45735474 280.88565125 15.01907349 280.24723816 C16.06711183 275.40428679 19.557434 271.14500449 22.26907349 267.05973816 C26.79493624 260.16608333 26.79493624 260.16608333 31.08157349 253.12223816 C33.46166275 249.0876139 36.02897308 245.19437859 38.64407349 241.30973816 C43.62589385 233.90831229 48.38862856 226.3784495 53.13626099 218.82536316 C55.63712094 214.84709749 58.16159863 210.88490351 60.70657349 206.93473816 C61.06992798 206.37069275 61.43328247 205.80664734 61.80764771 205.22550964 C62.87760574 203.56575227 63.94833364 201.90649127 65.01907349 200.24723816 C70.38020417 191.9313934 75.71032238 183.59662271 81.01907349 175.24723816 C87.00613875 165.83102911 93.02816094 156.43846371 99.07376099 147.05973816 C104.36671571 138.83917844 109.61993532 130.59381328 114.86550903 122.34294128 C118.07089055 117.30288639 121.28425535 112.2684484 124.51907349 107.24723816 C132.94673013 94.15847533 141.31405809 81.03046952 149.53567505 67.811203 C152.86315004 62.46987508 156.27557827 57.18679977 159.71829224 51.91911316 C161.79450285 48.67330219 163.72586062 45.34816049 165.66287231 42.01774597 C166.29179886 40.93712891 166.9207254 39.85651184 167.56871033 38.7431488 C168.04733017 37.91949829 168.52595001 37.09584778 169.01907349 36.24723816 C149.59088747 35.79250566 130.16545376 35.48296825 110.7323904 35.34308529 C101.70732998 35.27478799 92.68742345 35.16021255 83.66482544 34.93400574 C75.79401235 34.73679582 67.92774489 34.62914276 60.05437714 34.62599283 C55.88823016 34.62127547 51.73309728 34.57383461 47.56960869 34.41879082 C30.337054 33.25189521 30.337054 33.25189521 15.17183113 39.70616722 C10.31149825 45.67497424 7.11673089 52.22426338 4.2432766 59.32730103 C2.64502997 63.13939695 0.63542779 66.42978853 -1.60202026 69.89958191 C-2.23833374 70.94855652 -2.87464722 71.99753113 -3.53024292 73.07829285 C-4.4648938 74.61598328 -4.4648938 74.61598328 -5.41842651 76.18473816 C-5.76266663 76.75132141 -6.10690674 77.31790466 -6.46157837 77.9016571 C-18.53771901 97.77385642 -30.76133275 117.55282128 -43.1088562 137.25749207 C-45.01927565 140.30848275 -46.92639713 143.36151094 -48.83248901 146.41520691 C-55.11261846 156.47584045 -61.39767269 166.5329652 -67.75265503 176.54655457 C-70.15723835 180.33910927 -72.53716635 184.14385855 -74.87545776 187.97770691 C-75.56611328 189.10402527 -75.56611328 189.10402527 -76.27072144 190.25309753 C-77.14025826 191.67386569 -78.00401484 193.0981929 -78.86105347 194.52653503 C-79.84753587 196.13416677 -80.90719001 197.69652309 -81.98092651 199.24723816 C-82.64092651 199.24723816 -83.30092651 199.24723816 -83.98092651 199.24723816 C-84.27483276 198.63622253 -84.56873901 198.02520691 -84.87155151 197.39567566 C-90.98913979 184.91438924 -97.778576 172.77282129 -104.55123901 160.63786316 C-107.02756207 156.18580814 -109.423469 151.69417505 -111.79342651 147.18473816 C-112.22864624 146.3574823 -112.66386597 145.53022644 -113.11227417 144.67790222 C-115.75044169 139.64500116 -118.33321225 134.58887025 -120.85592651 129.49723816 C-123.96416634 123.22567578 -127.17135605 117.01050815 -130.41842651 110.80973816 C-135.18290812 101.70847606 -139.91529772 92.59118235 -144.62231445 83.46009827 C-145.34693142 82.05456835 -146.07191197 80.64922582 -146.79730225 79.24409485 C-154.18775344 64.92626955 -161.41769911 50.54048366 -168.35592651 35.99723816 C-169.3843033 33.84606785 -170.41293788 31.69502076 -171.44186401 29.54411316 C-171.88320679 28.61953308 -172.32454956 27.694953 -172.77926636 26.74235535 C-173.52399896 25.19599874 -174.30468266 23.66575958 -175.13961792 22.16618347 C-175.98092651 20.24723816 -175.98092651 20.24723816 -175.98092651 16.24723816 C-173.62819513 16.62938557 -172.31047888 16.90023323 -170.64401245 18.654953 C-170.25503784 19.25001648 -169.86606323 19.84507996 -169.46530151 20.45817566 C-169.02315308 21.12010925 -168.58100464 21.78204285 -168.12545776 22.46403503 C-167.66526245 23.17624207 -167.20506714 23.8884491 -166.73092651 24.62223816 C-165.74775548 26.09960259 -164.7633764 27.57616379 -163.77780151 29.05192566 C-163.29891479 29.77476746 -162.82002808 30.49760925 -162.32662964 31.24235535 C-160.61271531 33.79581407 -158.81022338 36.27541967 -156.98092651 38.74723816 C-153.2425607 43.83663556 -149.66195887 49.02587154 -146.10006714 54.23942566 C-143.6450639 57.8322918 -141.17005678 61.40929182 -138.66842651 64.96989441 C-134.56966057 70.81530943 -130.554177 76.71621854 -126.54342651 82.62223816 C-125.83121948 83.66895691 -125.11901245 84.71567566 -124.38522339 85.79411316 C-120.85868423 90.98302637 -117.35277371 96.18406034 -113.88327026 101.41130066 C-111.47870132 105.02920855 -109.03711667 108.61142764 -106.52780151 112.15739441 C-103.82922854 115.98700947 -101.23383064 119.87610223 -98.68405151 123.80583191 C-98.31928711 124.36799408 -97.95452271 124.93015625 -97.57870483 125.50935364 C-96.07837493 127.82509279 -94.58040879 130.14233273 -93.08590698 132.46183777 C-91.97600719 134.18277661 -90.86158714 135.90071778 -89.74655151 137.61833191 C-89.09460815 138.62823181 -88.44266479 139.63813171 -87.77096558 140.67863464 C-86.29351443 142.7986924 -84.88476336 144.51871602 -82.98092651 146.24723816 C-82.45627808 145.24692566 -81.93162964 144.24661316 -81.39108276 143.21598816 C-78.59440049 137.88953461 -75.78816149 132.56813596 -72.98092651 127.24723816 C-72.48807159 126.31243622 -72.48807159 126.31243622 -71.98526001 125.35874939 C-69.77913903 121.17470031 -67.56953453 116.99251492 -65.35638428 112.81217957 C-64.61332554 111.40758317 -63.87122024 110.00248193 -63.13012695 108.59684753 C-59.33112653 101.39317249 -55.46982141 94.2670061 -51.21920776 87.31584167 C-49.6026534 84.61531621 -48.21530531 81.83484855 -46.85592651 78.99723816 C-39.5607994 64.07298507 -31.22659801 49.64965885 -23.14498901 35.14176941 C-21.40697926 32.01918009 -19.68686377 28.88749696 -17.98092651 25.74723816 C-15.24295651 20.71975876 -12.49368541 15.69863393 -9.73092651 10.68473816 C-9.29393433 9.88551941 -8.85694214 9.08630066 -8.40670776 8.26286316 C-7.78602417 7.13944519 -7.78602417 7.13944519 -7.15280151 5.99333191 C-6.78251831 5.31971619 -6.41223511 4.64610046 -6.0307312 3.95207214 C-4.22959585 1.02711211 -3.50230325 0.29048117 0 0 Z " fill="#02C5C5" transform="translate(881.9809265136719,457.7527618408203)"/>
<path d="M0 0 C1.77734375 0.18359375 1.77734375 0.18359375 4 1 C5.75390625 3.16015625 5.75390625 3.16015625 7.5625 6.0625 C8.60470703 7.69251953 8.60470703 7.69251953 9.66796875 9.35546875 C10.22943604 10.23984619 10.22943604 10.23984619 10.80224609 11.14208984 C12.92409897 14.43342706 15.1513421 17.65194092 17.375 20.875 C17.84454102 21.55731689 18.31408203 22.23963379 18.79785156 22.94262695 C21.76311989 27.24064011 24.7686728 31.50733482 27.8125 35.75 C38.07483058 50.05575034 48.07024399 64.53658908 57.94335938 79.11328125 C62.4906583 85.81544135 67.12581126 92.43830559 71.8671875 99.00390625 C74.71661075 103.00666748 77.425206 107.09584403 80.1328125 111.1953125 C83.01089068 115.51845086 86.0048985 119.75751069 89 124 C93.08759228 129.82172234 97.15140462 135.65919088 101.19335938 141.51269531 C103.45480875 144.7827289 105.73014316 148.04242557 108.01953125 151.29296875 C114.70570548 160.79113185 121.31701845 170.33800508 127.85137939 179.94113159 C128.6926044 181.17716837 129.53467038 182.41263327 130.37762451 183.64749146 C138.58414074 195.67604434 138.58414074 195.67604434 142 202 C140.35 202 138.7 202 137 202 C137 203.65 137 205.3 137 207 C135.68 207.33 134.36 207.66 133 208 C133 209.32 133 210.64 133 212 C133.66 212 134.32 212 135 212 C135.69710731 213.28650706 136.38242876 214.57940665 137.0625 215.875 C137.44535156 216.59429688 137.82820312 217.31359375 138.22265625 218.0546875 C138.60744141 219.01761719 138.60744141 219.01761719 139 220 C138.67 220.66 138.34 221.32 138 222 C136.645489 219.89605435 135.29139036 217.79184499 133.9375 215.6875 C133.3815918 214.82415039 133.3815918 214.82415039 132.81445312 213.94335938 C129.7947644 209.24888531 126.79575421 204.5414182 123.80053711 199.83129883 C122.09356638 197.14713075 120.38497058 194.46400573 118.67578125 191.78125 C111.58267577 180.6446359 104.51152081 169.4945522 97.46777344 158.32666016 C95.48125872 155.17771051 93.49302547 152.02984784 91.50463867 148.88208008 C90.50202584 147.294786 89.49958426 145.70738374 88.49731445 144.11987305 C86.01282125 140.18484633 83.526235 136.251174 81.03515625 132.3203125 C75.74745298 123.97107858 70.5027243 115.5977325 65.3125 107.1875 C61.10915109 100.37708055 56.84479464 93.6169809 52.49609375 86.8984375 C48.50319977 80.69396576 44.62399517 74.41708945 40.71923828 68.15698242 C36.83158304 61.92597001 32.9285687 55.705292 29 49.5 C23.74530401 41.19890837 18.53546059 32.87017121 13.33789062 24.53320312 C12.74556641 23.58380859 12.15324219 22.63441406 11.54296875 21.65625 C10.96337402 20.72425781 10.3837793 19.79226563 9.78662109 18.83203125 C8.55454845 16.87903279 7.30084455 14.93957092 6.02978516 13.01171875 C5.39733887 12.04878906 4.76489258 11.08585937 4.11328125 10.09375 C3.25343628 8.80500977 3.25343628 8.80500977 2.3762207 7.49023438 C0.97042573 4.94648616 0.40073667 2.86249632 0 0 Z " fill="#07C0C0" transform="translate(402,304)"/>
<path d="M0 0 C2.57907535 2.36596457 4.31724924 4.90224062 6.15234375 7.875 C7.06052856 9.33836792 7.06052856 9.33836792 7.98706055 10.83129883 C8.63070557 11.87697021 9.27435059 12.9226416 9.9375 14 C11.29649249 16.19164348 12.65587197 18.38304705 14.015625 20.57421875 C14.69044922 21.66395996 15.36527344 22.75370117 16.06054688 23.87646484 C18.74688947 28.20288317 21.46322142 32.50990215 24.1875 36.8125 C24.67017334 37.575625 25.15284668 38.33875 25.65014648 39.125 C26.61601344 40.65198041 27.58207613 42.17883703 28.54833984 43.70556641 C31.5364869 48.4285072 34.51940096 53.15475613 37.50292969 57.88061523 C39.98740208 61.81544083 42.47386195 65.748979 44.96484375 69.6796875 C50.74141245 78.80058545 56.45893152 87.95541671 62.13110352 97.14160156 C65.84834226 103.15568436 69.59800151 109.14827663 73.375 115.125 C73.87104736 115.91148926 74.36709473 116.69797852 74.87817383 117.50830078 C76.98353294 120.8403346 79.09737604 124.16416794 81.26953125 127.453125 C81.90246094 128.41734375 82.53539062 129.3815625 83.1875 130.375 C83.71730469 131.16648437 84.24710938 131.95796875 84.79296875 132.7734375 C86.10281354 135.18965604 86.60301581 137.29285481 87 140 C83.49462306 139.39732601 83.0790949 139.09933784 80.6953125 136.10546875 C79.82764712 134.8066917 78.97172135 133.50002733 78.125 132.1875 C77.14706646 130.71792866 76.16783892 129.24921782 75.1875 127.78125 C74.67058594 127.00136719 74.15367188 126.22148438 73.62109375 125.41796875 C70.85630653 121.2941054 67.98545774 117.24529417 65.125 113.1875 C59.99383379 105.87975102 54.92865129 98.53001344 49.89941406 91.15185547 C45.3493675 84.48682364 40.72650721 77.87449386 36.08984375 71.26953125 C32.08439262 65.56020225 28.11958361 59.82482441 24.17871094 54.07080078 C20.52971561 48.75122905 16.83108874 43.46740724 13.125 38.1875 C8.30399093 31.31176567 3.5063288 24.42066555 -1.25 17.5 C-1.79897949 16.70489014 -2.34795898 15.90978027 -2.91357422 15.09057617 C-3.42162598 14.34912354 -3.92967773 13.6076709 -4.453125 12.84375 C-4.89817383 12.19599609 -5.34322266 11.54824219 -5.80175781 10.88085938 C-7.01559035 8.97552811 -8.02663721 7.0371658 -9 5 C-8.236875 4.855625 -7.47375 4.71125 -6.6875 4.5625 C-3.91827092 4.0367406 -3.91827092 4.0367406 -1 3 C-0.67 2.01 -0.34 1.02 0 0 Z " fill="#08BFBF" transform="translate(1111,1030)"/>
<path d="M0 0 C1.77734375 0.18359375 1.77734375 0.18359375 4 1 C5.75390625 3.16015625 5.75390625 3.16015625 7.5625 6.0625 C8.60470703 7.69251953 8.60470703 7.69251953 9.66796875 9.35546875 C10.22943604 10.23984619 10.22943604 10.23984619 10.80224609 11.14208984 C12.92409897 14.43342706 15.1513421 17.65194092 17.375 20.875 C17.84454102 21.55731689 18.31408203 22.23963379 18.79785156 22.94262695 C21.76311989 27.24064011 24.7686728 31.50733482 27.8125 35.75 C38.16907906 50.18713329 48.26976596 64.79613128 58.22680664 79.51098633 C61.75526984 84.7218623 65.31089942 89.90141849 69 95 C68.01 95.495 68.01 95.495 67 96 C65.02 93.36 63.04 90.72 61 88 C61.15597656 88.75925781 61.31195313 89.51851563 61.47265625 90.30078125 C61.76462891 91.79158203 61.76462891 91.79158203 62.0625 93.3125 C62.35833984 94.79169922 62.35833984 94.79169922 62.66015625 96.30078125 C63 99 63 99 62 102 C55.46868311 91.68611412 48.96424395 81.35607586 42.5 71 C37.54684564 63.06492767 32.57259162 55.14395085 27.56958008 47.24023438 C22.79492757 39.69044017 18.06378263 32.11359378 13.33789062 24.53320312 C12.74556641 23.58380859 12.15324219 22.63441406 11.54296875 21.65625 C10.96337402 20.72425781 10.3837793 19.79226563 9.78662109 18.83203125 C8.55454845 16.87903279 7.30084455 14.93957092 6.02978516 13.01171875 C5.39733887 12.04878906 4.76489258 11.08585937 4.11328125 10.09375 C3.25343628 8.80500977 3.25343628 8.80500977 2.3762207 7.49023438 C0.97042573 4.94648616 0.40073667 2.86249632 0 0 Z " fill="#09BDBD" transform="translate(402,304)"/>
<path d="M0 0 C2.84681207 2.67465972 4.92317464 5.24632388 6.8671875 8.62890625 C7.38120117 9.50949707 7.89521484 10.39008789 8.42480469 11.29736328 C8.94461914 12.1892334 9.46443359 13.08110352 10 14 C10.99686838 15.63761993 11.99941121 17.27180015 13.0078125 18.90234375 C13.5136084 19.72041504 14.0194043 20.53848633 14.54052734 21.38134766 C15.06340332 22.22487793 15.5862793 23.0684082 16.125 23.9375 C16.68268066 24.83774902 17.24036133 25.73799805 17.81494141 26.66552734 C21.6426428 32.83495753 25.49761791 38.98668539 29.375 45.125 C29.87056396 45.91076416 30.36612793 46.69652832 30.87670898 47.50610352 C32.98261726 50.83883034 35.09689132 54.16343401 37.26953125 57.453125 C37.90246094 58.41734375 38.53539062 59.3815625 39.1875 60.375 C39.71730469 61.16648437 40.24710938 61.95796875 40.79296875 62.7734375 C42.10281354 65.18965604 42.60301581 67.29285481 43 70 C39.49462306 69.39732601 39.0790949 69.09933784 36.6953125 66.10546875 C35.82764712 64.8066917 34.97172135 63.50002733 34.125 62.1875 C33.14706646 60.71792866 32.16783892 59.24921782 31.1875 57.78125 C30.67058594 57.00136719 30.15367188 56.22148438 29.62109375 55.41796875 C26.85630266 51.29409963 23.98526957 47.24543307 21.125 43.1875 C16.30251299 36.31281986 11.50631579 29.42064661 6.75 22.5 C6.20102051 21.70489014 5.65204102 20.90978027 5.08642578 20.09057617 C4.57837402 19.34912354 4.07032227 18.6076709 3.546875 17.84375 C2.87930176 16.87211914 2.87930176 16.87211914 2.19824219 15.88085938 C0.98440965 13.97552811 -0.02663721 12.0371658 -1 10 C-0.01 9.67 0.98 9.34 2 9 C2.73323796 6.98491642 2.73323796 6.98491642 3 5 C2.01 5 1.02 5 0 5 C0 3.35 0 1.7 0 0 Z " fill="#0FB7B6" transform="translate(1155,1100)"/>
<path d="M0 0 C46.2 0 92.4 0 140 0 C138.68 2.31 137.36 4.62 136 7 C135.67 7 135.34 7 135 7 C135 5.35 135 3.7 135 2 C134.34069929 2.00092179 133.68139858 2.00184359 133.00211906 2.00279331 C116.95219435 2.02488764 100.90227494 2.04143064 84.85233879 2.05181217 C77.09068124 2.05696617 69.32903384 2.06399182 61.56738281 2.07543945 C54.80151587 2.08541364 48.03565628 2.09185995 41.26978219 2.09408849 C37.68806365 2.09539095 34.10636617 2.0984474 30.52465439 2.10573006 C26.52407654 2.11379825 22.52353518 2.11398937 18.52294922 2.11352539 C17.3382756 2.11712067 16.15360199 2.12071594 14.93302917 2.12442017 C13.83935532 2.1230455 12.74568146 2.12167084 11.61886597 2.12025452 C10.67310637 2.12117631 9.72734676 2.1220981 8.75292778 2.12304783 C5.77116148 1.98977159 2.93215647 1.54516348 0 1 C0 0.67 0 0.34 0 0 Z " fill="#18B0B0" transform="translate(976,459)"/>
<path d="M0 0 C0.33 1.32 0.66 2.64 1 4 C77.89 4.66 154.78 5.32 234 6 C234 6.33 234 6.66 234 7 C216.06250905 7.03128867 198.12501432 7.05130941 180.1875 7.0625 C179.17383472 7.06315145 179.17383472 7.06315145 178.13969135 7.06381607 C134.38228278 7.09116194 90.63054284 6.9119828 46.875 6.5 C45.60428524 6.48804218 44.33357048 6.47608437 43.02434921 6.46376419 C27.68280068 6.31855578 12.34135573 6.16429761 -3 6 C-1.125 1.125 -1.125 1.125 0 0 Z " fill="#1BB9B9" transform="translate(488,1008)"/>
<path d="M0 0 C2.35273139 0.38214741 3.67044763 0.65299507 5.33691406 2.40771484 C5.72588867 3.00277832 6.11486328 3.5978418 6.515625 4.2109375 C6.95865967 4.87416016 7.40169434 5.53738281 7.8581543 6.22070312 C8.31746338 6.93162109 8.77677246 7.64253906 9.25 8.375 C10.21880705 9.83155805 11.18886791 11.2872829 12.16015625 12.7421875 C12.63727051 13.46245117 13.11438477 14.18271484 13.60595703 14.92480469 C16.59968959 19.38132425 19.80859587 23.68383166 23 28 C21.68 28.33 20.36 28.66 19 29 C19 28.34 19 27.68 19 27 C18.01 27.66 17.02 28.32 16 29 C16.25561323 31.3431213 16.59270772 33.67843403 17 36 C17.66 36.33 18.32 36.66 19 37 C18.67 38.32 18.34 39.64 18 41 C13.42045623 31.95604065 8.91935066 22.87333477 4.5 13.75 C4.05479004 12.84548096 3.60958008 11.94096191 3.15087891 11.0090332 C2.74015137 10.155271 2.32942383 9.30150879 1.90625 8.421875 C1.53822266 7.66487305 1.17019531 6.90787109 0.79101562 6.12792969 C0 4 0 4 0 0 Z " fill="#10B4B2" transform="translate(706,474)"/>
<path d="M0 0 C1.77734375 0.18359375 1.77734375 0.18359375 4 1 C5.75390625 3.16015625 5.75390625 3.16015625 7.5625 6.0625 C8.25472656 7.1453125 8.94695312 8.228125 9.66015625 9.34375 C10.03414551 9.93285156 10.40813477 10.52195312 10.79345703 11.12890625 C12.9592019 14.4875199 15.23166701 17.77267383 17.5 21.0625 C18.19681885 22.07582397 18.19681885 22.07582397 18.90771484 23.10961914 C22.84154075 28.81180527 26.88122754 34.42962578 31 40 C30.67 40.66 30.34 41.32 30 42 C29.34 40.68 28.68 39.36 28 38 C27.34 38 26.68 38 26 38 C26 39.65 26 41.3 26 43 C23.33235173 40.5682662 21.56471833 37.90794448 19.671875 34.84375 C19.03636719 33.82023437 18.40085937 32.79671875 17.74609375 31.7421875 C17.08738281 30.67226563 16.42867188 29.60234375 15.75 28.5 C14.45357343 26.40597231 13.15670048 24.3122209 11.859375 22.21875 C11.22322266 21.18621094 10.58707031 20.15367187 9.93164062 19.08984375 C8.64116168 17.02559937 7.32709075 14.97592236 5.99023438 12.94140625 C5.35923828 11.98105469 4.72824219 11.02070313 4.078125 10.03125 C3.22589355 8.75604492 3.22589355 8.75604492 2.35644531 7.45507812 C0.96032558 4.92819187 0.40022391 2.84349557 0 0 Z " fill="#0EB9B9" transform="translate(402,304)"/>
<path d="M0 0 C50.16 0 100.32 0 152 0 C152.33 1.65 152.66 3.3 153 5 C151.68 5.66 150.36 6.32 149 7 C149.66 5.02 150.32 3.04 151 1 C101.17 1 51.34 1 0 1 C0 0.67 0 0.34 0 0 Z " fill="#17B3B1" transform="translate(900,493)"/>
<path d="M0 0 C49.83 0 99.66 0 151 0 C149 6 149 6 147 7 C147.33 5.02 147.66 3.04 148 1 C99.16 1 50.32 1 0 1 C0 0.67 0 0.34 0 0 Z " fill="#004344" transform="translate(900,494)"/>
<path d="M0 0 C6.29374302 9.44061452 11.19395613 20.07587324 16.0625 30.3125 C16.61035156 31.46363281 17.15820312 32.61476563 17.72265625 33.80078125 C18.9629735 36.9072639 19.59436367 39.68980727 20 43 C16.99656363 42.67440623 16.09711205 42.11191572 14.078125 39.78515625 C13.47484375 38.88667969 12.8715625 37.98820313 12.25 37.0625 C11.32960938 35.71865234 11.32960938 35.71865234 10.390625 34.34765625 C9 32 9 32 9 30 C9.99 30 10.98 30 12 30 C11.67 28.35 11.34 26.7 11 25 C10.34 25 9.68 25 9 25 C7.23537317 21.91190305 7 20.76687864 7 17 C6.34 17 5.68 17 5 17 C3.14223235 13.86501708 2.79859524 11.62528568 3 8 C2.34 8 1.68 8 1 8 C0.67 5.36 0.34 2.72 0 0 Z " fill="#10B3B2" transform="translate(874,956)"/>
<path d="M0 0 C3.89221995 3.49301791 6.4544265 7.5348838 9.1875 11.9375 C9.63802734 12.64068359 10.08855469 13.34386719 10.55273438 14.06835938 C12.80883611 17.67744565 14.56791478 20.67067556 15 25 C12.54969458 24.61973509 11.29382381 24.31160551 9.56787109 22.48120117 C9.14070801 21.84158447 8.71354492 21.20196777 8.2734375 20.54296875 C7.7990625 19.84236328 7.3246875 19.14175781 6.8359375 18.41992188 C6.11277344 17.31487305 6.11277344 17.31487305 5.375 16.1875 C4.88515625 15.46240234 4.3953125 14.73730469 3.890625 13.99023438 C1.71005015 10.73426673 -0.2990665 7.53584128 -2 4 C-1.01 4 -0.02 4 1 4 C0.67 2.68 0.34 1.36 0 0 Z " fill="#15AAA7" transform="translate(1183,1145)"/>
<path d="M0 0 C3.01693943 2.85674795 5.40554531 5.82348931 7.75 9.25 C8.67039062 10.58804687 8.67039062 10.58804687 9.609375 11.953125 C10.06828125 12.62859375 10.5271875 13.3040625 11 14 C10.01 14.495 10.01 14.495 9 15 C7.02 12.36 5.04 9.72 3 7 C3.15597656 7.75925781 3.31195313 8.51851563 3.47265625 9.30078125 C3.76462891 10.79158203 3.76462891 10.79158203 4.0625 12.3125 C4.25972656 13.29863281 4.45695312 14.28476562 4.66015625 15.30078125 C5 18 5 18 4 21 C-2.02102515 13.30355916 -2.02102515 13.30355916 -1.9375 8.125 C-1.32217931 6.07393103 -0.67716346 4.03149037 0 2 C0 1.34 0 0.68 0 0 Z " fill="#0FB6B5" transform="translate(460,385)"/>
<path d="M0 0 C19.8 0 39.6 0 60 0 C60.495 2.475 60.495 2.475 61 5 C59.02 5.99 59.02 5.99 57 7 C57.66 5.02 58.32 3.04 59 1 C39.53 1 20.06 1 0 1 C0 0.67 0 0.34 0 0 Z " fill="#0F9D9C" transform="translate(992,493)"/>
<path d="M0 0 C19.8 0 39.6 0 60 0 C58 6 58 6 56 7 C56.33 5.02 56.66 3.04 57 1 C38.19 1 19.38 1 0 1 C0 0.67 0 0.34 0 0 Z " fill="#002B2C" transform="translate(991,494)"/>
<path d="M0 0 C19.47 0 38.94 0 59 0 C58.01 1.98 57.02 3.96 56 6 C55.67 6 55.34 6 55 6 C55 4.35 55 2.7 55 1 C36.85 1 18.7 1 0 1 C0 0.67 0 0.34 0 0 Z " fill="#11C0C0" transform="translate(1056,460)"/>
<path d="M0 0 C4.30843738 1.43614579 6.49297597 4.28477162 9 8 C9.875 11.4375 9.875 11.4375 10 14 C7.75 14.375 7.75 14.375 5 14 C0.99937718 9.55486354 0.39577084 5.73867715 0 0 Z " fill="#0AC0BF" transform="translate(427,341)"/>
<path d="M0 0 C3.00343637 0.32559377 3.90288795 0.88808428 5.921875 3.21484375 C6.52515625 4.11332031 7.1284375 5.01179688 7.75 5.9375 C8.36359375 6.83339844 8.9771875 7.72929687 9.609375 8.65234375 C11 11 11 11 11 13 C9.68 12.67 8.36 12.34 7 12 C6.67 13.32 6.34 14.64 6 16 C4.9901527 14.08850332 3.99245505 12.17058431 3 10.25 C2.443125 9.18265625 1.88625 8.1153125 1.3125 7.015625 C0 4 0 4 0 0 Z " fill="#0DBABA" transform="translate(706,474)"/>
<path d="M0 0 C0.33 0.66 0.66 1.32 1 2 C0.505 2.53625 0.01 3.0725 -0.5 3.625 C-2.37489544 6.59358445 -2.23501425 8.55312427 -2 12 C-2.639375 12.12375 -3.27875 12.2475 -3.9375 12.375 C-4.618125 12.58125 -5.29875 12.7875 -6 13 C-6.33 13.66 -6.66 14.32 -7 15 C-7.66 15 -8.32 15 -9 15 C-8.67 15.99 -8.34 16.98 -8 18 C-10.3125 21.1875 -10.3125 21.1875 -13 24 C-13.66 24 -14.32 24 -15 24 C-15 24.66 -15 25.32 -15 26 C-15.66 26 -16.32 26 -17 26 C-15.62085906 23.11276581 -14.06299268 20.47153545 -12.28515625 17.8125 C-11.76373047 17.03132812 -11.24230469 16.25015625 -10.70507812 15.4453125 C-9.89200195 14.23488281 -9.89200195 14.23488281 -9.0625 13 C-8.52431641 12.19304688 -7.98613281 11.38609375 -7.43164062 10.5546875 C-5.03238624 6.96911867 -2.61236532 3.43491064 0 0 Z " fill="#10ADAB" transform="translate(598,848)"/>
<path d="M0 0 C4.91211284 1.22802821 7.35403323 2.62397804 10 7 C10.25 9.8125 10.25 9.8125 10 12 C8.68 12.33 7.36 12.66 6 13 C3.90250005 10.64031256 3.03094296 9.45383006 2.8125 6.25 C2.9053125 5.13625 2.9053125 5.13625 3 4 C2.01 4 1.02 4 0 4 C0 2.68 0 1.36 0 0 Z " fill="#06BFBF" transform="translate(713,486)"/>
<path d="M0 0 C3.10717138 0.29690749 3.93850818 0.92705382 5.9921875 3.36328125 C6.92417969 4.82314453 6.92417969 4.82314453 7.875 6.3125 C8.83019531 7.76076172 8.83019531 7.76076172 9.8046875 9.23828125 C11 12 11 12 10.1953125 14.35546875 C9.80085938 14.89816406 9.40640625 15.44085938 9 16 C6.57711047 13.72262936 4.68676568 11.30679518 2.8125 8.5625 C2.01779297 7.41974609 2.01779297 7.41974609 1.20703125 6.25390625 C0 4 0 4 0 0 Z " fill="#13B5B5" transform="translate(402,304)"/>
<path d="M0 0 C0.33 1.32 0.66 2.64 1 4 C0.34 4 -0.32 4 -1 4 C-1.04125 5.051875 -1.0825 6.10375 -1.125 7.1875 C-2.08148879 11.3550583 -3.00891265 12.12595908 -6.3671875 14.53515625 C-9.50172549 17.34724177 -11.1614227 21.26589831 -13 25 C-13.66 25 -14.32 25 -15 25 C-13.67222482 21.4004407 -12.06824929 18.33900627 -9.9609375 15.13671875 C-9.38085938 14.25048828 -8.80078125 13.36425781 -8.203125 12.45117188 C-7.29820312 11.0831543 -7.29820312 11.0831543 -6.375 9.6875 C-5.76398437 8.75615234 -5.15296875 7.82480469 -4.5234375 6.86523438 C-3.01957 4.57418624 -1.51165714 2.28591281 0 0 Z " fill="#11ABAA" transform="translate(1024,538)"/>
<path d="M0 0 C3.26783673 3.03441982 5.87441798 6.063737 8 10 C7.75 13.375 7.75 13.375 7 16 C5.68 16 4.36 16 3 16 C2.87625 14.865625 2.7525 13.73125 2.625 12.5625 C2.41875 11.386875 2.2125 10.21125 2 9 C1.34 8.67 0.68 8.34 0 8 C0 5.33333333 0 2.66666667 0 0 Z " fill="#02C7C7" transform="translate(462,390)"/>
<path d="M0 0 C3.25524265 3.02272532 5.61820737 6.25718301 8 10 C7.67 10.66 7.34 11.32 7 12 C5.68 11.01 4.36 10.02 3 9 C2.67 10.98 2.34 12.96 2 15 C-1.67033927 11.72291137 -3.69281189 8.28477792 -6 4 C-5.01 4.33 -4.02 4.66 -3 5 C-3 5.66 -3 6.32 -3 7 C-2.01 7 -1.02 7 0 7 C0 4.69 0 2.38 0 0 Z " fill="#0FB5B4" transform="translate(1146,1086)"/>
<path d="M0 0 C0.33 1.32 0.66 2.64 1 4 C0.34 4 -0.32 4 -1 4 C-1 5.65 -1 7.3 -1 9 C-1.99 9.495 -1.99 9.495 -3 10 C-3.72159424 11.64363134 -4.39351421 13.31050386 -5 15 C-5.66 15 -6.32 15 -7 15 C-7 15.99 -7 16.98 -7 18 C-7.66 18 -8.32 18 -9 18 C-9.1546875 19.051875 -9.1546875 19.051875 -9.3125 20.125 C-10.09359003 23.39137647 -11.42058743 26.0471852 -13 29 C-13.66 29 -14.32 29 -15 29 C-13.71939982 24.81238337 -12.13653086 21.17943621 -9.9609375 17.3828125 C-9.38085938 16.36445313 -8.80078125 15.34609375 -8.203125 14.296875 C-7.29820312 12.72679687 -7.29820312 12.72679687 -6.375 11.125 C-5.76398437 10.05507813 -5.15296875 8.98515625 -4.5234375 7.8828125 C-3.0203689 5.25244245 -1.51243714 2.62499074 0 0 Z " fill="#13A7A6" transform="translate(872,469)"/>
<path d="M0 0 C1.32 0.33 2.64 0.66 4 1 C4 1.66 4 2.32 4 3 C5.32 3.33 6.64 3.66 8 4 C8.66 7.3 9.32 10.6 10 14 C9.34 14 8.68 14 8 14 C8 13.34 8 12.68 8 12 C6.68 11.67 5.36 11.34 4 11 C3.896875 10.0925 3.79375 9.185 3.6875 8.25 C2.99172554 4.96088438 2.13741135 3.50913506 0 1 C0 0.67 0 0.34 0 0 Z " fill="#09BEBF" transform="translate(1162,1118)"/>
<path d="M0 0 C0.33 0.66 0.66 1.32 1 2 C0.05439935 4.0262871 -0.95377125 6.02379014 -2 8 C-2.309375 8.845625 -2.61875 9.69125 -2.9375 10.5625 C-4.22353072 13.51280577 -5.82914639 15.63179606 -8 18 C-8.99 18.33 -9.98 18.66 -11 19 C-9.41467191 14.44435939 -7.00996919 10.68524231 -4.375 6.6875 C-3.95476563 6.04232422 -3.53453125 5.39714844 -3.1015625 4.73242188 C-2.07161759 3.15239276 -1.03634372 1.57583953 0 0 Z " fill="#11B2AE" transform="translate(953,649)"/>
<path d="M0 0 C3.61692478 3.42755699 6.46309201 6.89420847 9.1875 11.0625 C9.86167969 12.08472656 10.53585937 13.10695313 11.23046875 14.16015625 C12.63047438 16.4069644 13.88047506 18.60593898 15 21 C12.625 20.375 12.625 20.375 10 19 C9.32060826 17.00428677 8.65438441 15.00405227 8 13 C7.175 12.505 6.35 12.01 5.5 11.5 C3 10 3 10 1.75 7.0625 C1.5025 6.051875 1.255 5.04125 1 4 C0.79375 3.21625 0.5875 2.4325 0.375 1.625 C0.25125 1.08875 0.1275 0.5525 0 0 Z " fill="#11AEAD" transform="translate(496,437)"/>
<path d="M0 0 C3.67882073 3.28466137 5.75150101 6.66360908 8 11 C8 11.66 8 12.32 8 13 C7.34 13 6.68 13 6 13 C5.34 12.34 4.68 11.68 4 11 C3.34 12.32 2.68 13.64 2 15 C1.01 13.35 0.02 11.7 -1 10 C-0.01 9.67 0.98 9.34 2 9 C2.73323796 6.98491642 2.73323796 6.98491642 3 5 C2.01 5 1.02 5 0 5 C0 3.35 0 1.7 0 0 Z " fill="#11B0AF" transform="translate(1155,1100)"/>
<path d="M0 0 C0.33 1.32 0.66 2.64 1 4 C10.9 4.33 20.8 4.66 31 5 C31 5.33 31 5.66 31 6 C19.78 6 8.56 6 -3 6 C-1 1 -1 1 0 0 Z " fill="#19B8BA" transform="translate(488,1008)"/>
<path d="M0 0 C0.66 0 1.32 0 2 0 C0.56691865 3.95906817 -1.33141949 7.28718181 -3.625 10.8125 C-4.57246094 12.27623047 -4.57246094 12.27623047 -5.5390625 13.76953125 C-6.02117188 14.50558594 -6.50328125 15.24164062 -7 16 C-7.33 15.01 -7.66 14.02 -8 13 C-7.34 12.01 -6.68 11.02 -6 10 C-6.04125 9.175 -6.0825 8.35 -6.125 7.5 C-6 5 -6 5 -4.125 3.1875 C-2 2 -2 2 0 2 C0 1.34 0 0.68 0 0 Z " fill="#10B6B2" transform="translate(863,551)"/>
<path d="M0 0 C0.33 0.66 0.66 1.32 1 2 C-0.7112333 6.85024409 -3.26239701 10.50353269 -7 14 C-7.53625 14.9075 -8.0725 15.815 -8.625 16.75 C-9.305625 17.86375 -9.305625 17.86375 -10 19 C-10.66 19 -11.32 19 -12 19 C-10.42686828 14.27156386 -7.79358765 10.6566157 -4.875 6.6875 C-4.17310547 5.71973633 -4.17310547 5.71973633 -3.45703125 4.73242188 C-2.3094071 3.15151106 -1.15534523 1.57527699 0 0 Z " fill="#001F21" transform="translate(1109,469)"/>
<path d="M0 0 C0.33 0.99 0.66 1.98 1 3 C-1.3223375 6.956575 -4.14038074 10.42547592 -7 14 C-7.70125 15.093125 -8.4025 16.18625 -9.125 17.3125 C-10.053125 18.6428125 -10.053125 18.6428125 -11 20 C-11.66 20 -12.32 20 -13 20 C-11.43075621 16.69837322 -9.58442346 13.64709458 -7.625 10.5625 C-7.03976562 9.63566406 -6.45453125 8.70882812 -5.8515625 7.75390625 C-4.02963026 5.04407032 -2.07557641 2.51903657 0 0 Z " fill="#002222" transform="translate(1071,524)"/>
<path d="M0 0 C1.32 0.33 2.64 0.66 4 1 C4.33 3.31 4.66 5.62 5 8 C4.01 8.495 4.01 8.495 3 9 C1.35 7.68 -0.3 6.36 -2 5 C-1.34 3.35 -0.68 1.7 0 0 Z " fill="#04C6C8" transform="translate(1142,1085)"/>
<path d="M0 0 C3.26568788 2.72308128 4.86187313 6.31596302 6.6875 10.0625 C7.00783203 10.69994141 7.32816406 11.33738281 7.65820312 11.99414062 C10 16.73265925 10 16.73265925 10 19 C7 18 7 18 5.3125 14.9375 C4.879375 13.968125 4.44625 12.99875 4 12 C3.67 12 3.34 12 3 12 C3 10.35 3 8.7 3 7 C2.34 7 1.68 7 1 7 C0.67 4.69 0.34 2.38 0 0 Z " fill="#11A4A3" transform="translate(840,890)"/>
<path d="M0 0 C1.26467795 2.52935589 0.7249339 3.34190903 0 6 C0 6.99 0 7.98 0 9 C-1.63790712 10.04644066 -3.31008021 11.0398183 -5 12 C-6.36984198 13.29579647 -7.7151049 14.61992749 -9 16 C-7.56691865 12.04093183 -5.66858051 8.71281819 -3.375 5.1875 C-2.74335937 4.21167969 -2.11171875 3.23585938 -1.4609375 2.23046875 C-0.73777344 1.12638672 -0.73777344 1.12638672 0 0 Z " fill="#10AFAD" transform="translate(774,858)"/>
<path d="M0 0 C0.33 0.99 0.66 1.98 1 3 C0.0390625 4.68359375 0.0390625 4.68359375 -1.375 6.4375 C-3.41610228 8.98602715 -4.23803987 10.84884284 -5 14 C-6.31266518 15.35368596 -7.64567325 16.68799596 -9 18 C-9.33 18.99 -9.66 19.98 -10 21 C-10.66 21 -11.32 21 -12 21 C-10.4902946 16.80113185 -8.368251 13.13331136 -6 9.375 C-5.64421875 8.80265625 -5.2884375 8.2303125 -4.921875 7.640625 C-3.31793978 5.06714685 -1.68218226 2.52327339 0 0 Z " fill="#002325" transform="translate(573,939)"/>
<path d="M0 0 C0.33 1.32 0.66 2.64 1 4 C0.34 4 -0.32 4 -1 4 C-1.061875 5.051875 -1.12375 6.10375 -1.1875 7.1875 C-2.1415252 11.66407978 -3.61931426 13.04189997 -7 16 C-7.33 16.66 -7.66 17.32 -8 18 C-8.66 18 -9.32 18 -10 18 C-8.47146065 13.72813475 -6.28490519 10.00673137 -3.875 6.1875 C-3.50246094 5.59001953 -3.12992188 4.99253906 -2.74609375 4.37695312 C-1.8342952 2.91573749 -0.91764024 1.45755415 0 0 Z " fill="#15ACA8" transform="translate(984,600)"/>
<path d="M0 0 C1 2 1 2 0.6875 4.0625 C0 6 0 6 -2 7 C-2.474375 8.134375 -2.94875 9.26875 -3.4375 10.4375 C-5 14 -5 14 -8 16 C-8.33 16.99 -8.66 17.98 -9 19 C-9.66 19 -10.32 19 -11 19 C-9.41467191 14.44435939 -7.00996919 10.68524231 -4.375 6.6875 C-3.95476563 6.04232422 -3.53453125 5.39714844 -3.1015625 4.73242188 C-2.07161759 3.15239276 -1.03634372 1.57583953 0 0 Z " fill="#13ACAB" transform="translate(764,874)"/>
<path d="M0 0 C1.65 0 3.3 0 5 0 C6.0326802 2.78823655 6.04509293 3.8677274 5.0625 6.75 C4.711875 7.4925 4.36125 8.235 4 9 C3.01 8.67 2.02 8.34 1 8 C1 6.68 1 5.36 1 4 C0.34 4 -0.32 4 -1 4 C-0.67 2.68 -0.34 1.36 0 0 Z " fill="#01C7C9" transform="translate(474,414)"/>
<path d="M0 0 C1.1484375 3.6796875 1.1484375 3.6796875 -0.1875 6.5625 C-1.95496785 8.93943952 -3.63753129 10.26752295 -6 12 C-6.33 12.99 -6.66 13.98 -7 15 C-7.66 15 -8.32 15 -9 15 C-7.61219205 11.10993227 -5.7847773 8.03441292 -3.375 4.6875 C-2.74335938 3.80449219 -2.11171875 2.92148437 -1.4609375 2.01171875 C-0.97882813 1.34785156 -0.49671875 0.68398438 0 0 Z " fill="#12ACA9" transform="translate(498,993)"/>
<path d="M0 0 C0.66 1.32 1.32 2.64 2 4 C1.071875 4.8353125 1.071875 4.8353125 0.125 5.6875 C-2.1304373 7.85558728 -2.1304373 7.85558728 -3 10.625 C-4 13 -4 13 -6.125 14.3125 C-7.053125 14.6528125 -7.053125 14.6528125 -8 15 C-6.62712658 11.30123909 -4.93644547 8.0485524 -2.875 4.6875 C-2.33617187 3.80449219 -1.79734375 2.92148437 -1.2421875 2.01171875 C-0.83226562 1.34785156 -0.42234375 0.68398438 0 0 Z " fill="#0FACA8" transform="translate(791,830)"/>
<path d="M0 0 C1 2 1 2 0.875 3.8125 C-0.37407967 6.93519917 -2.6057526 8.66143278 -5 11 C-7.29740741 14.21637037 -9.34292723 17.40967567 -11 21 C-12 18 -12 18 -11.01196289 16.00708008 C-10.2500061 14.89949341 -10.2500061 14.89949341 -9.47265625 13.76953125 C-8.92802734 12.96708984 -8.38339844 12.16464844 -7.82226562 11.33789062 C-6.95118164 10.08782227 -6.95118164 10.08782227 -6.0625 8.8125 C-5.48564453 7.96751953 -4.90878906 7.12253906 -4.31445312 6.25195312 C-2.88537596 4.16148487 -1.44702665 2.07806558 0 0 Z " fill="#16A4A2" transform="translate(909,718)"/>
<path d="M0 0 C3.68006822 3.38168431 5.9785845 6.42521756 8 11 C6 11 6 11 4.375 9.5 C3.92125 9.005 3.4675 8.51 3 8 C2.67 9.32 2.34 10.64 2 12 C0.68 9.36 -0.64 6.72 -2 4 C-1.34 4 -0.68 4 0 4 C0 4.66 0 5.32 0 6 C0.66 6 1.32 6 2 6 C1.34 4.02 0.68 2.04 0 0 Z " fill="#14AAAB" transform="translate(417,323)"/>
<path d="M0 0 C2 4 2 4 2 6 C-1.46153846 9 -1.46153846 9 -4 9 C-4 10.32 -4 11.64 -4 13 C-4.66 13 -5.32 13 -6 13 C-6.33 13.99 -6.66 14.98 -7 16 C-7.66 15.67 -8.32 15.34 -9 15 C-6.03 10.05 -3.06 5.1 0 0 Z " fill="#0EB2B3" transform="translate(729,930)"/>
<path d="M0 0 C0.33 0.66 0.66 1.32 1 2 C0.4225 2.825 -0.155 3.65 -0.75 4.5 C-2.86939672 7.62685643 -4.39493356 10.89437554 -5.875 14.36328125 C-7 16 -7 16 -9.125 16.73046875 C-9.74375 16.81941406 -10.3625 16.90835938 -11 17 C-7.81243454 10.90695451 -4.27290439 5.38885193 0 0 Z " fill="#13B1AE" transform="translate(656,763)"/>
<path d="M0 0 C1.875 0.625 1.875 0.625 4 2 C5.25 5.125 5.25 5.125 6 8 C6.66 8 7.32 8 8 8 C9.6875 10.25 9.6875 10.25 11 13 C10.58203125 15.171875 10.58203125 15.171875 10 17 C8.32972219 14.35642999 6.6643902 11.70978008 5 9.0625 C4.52304688 8.30775391 4.04609375 7.55300781 3.5546875 6.77539062 C3.10351562 6.05673828 2.65234375 5.33808594 2.1875 4.59765625 C1.76855469 3.93258057 1.34960938 3.26750488 0.91796875 2.58227539 C0 1 0 1 0 0 Z " fill="#001A1E" transform="translate(1099,1010)"/>
<path d="M0 0 C0.33 0.99 0.66 1.98 1 3 C1.99 3 2.98 3 4 3 C3.34 5.31 2.68 7.62 2 10 C2.66 10.33 3.32 10.66 4 11 C3.01 11 2.02 11 1 11 C-0.32 8.36 -1.64 5.72 -3 3 C-2.01 2.01 -1.02 1.02 0 0 Z " fill="#0AB7B6" transform="translate(491,440)"/>
<path d="M0 0 C3.33557632 2.9905167 5.15083921 5.93184627 7 10 C4.00667261 9.0022242 3.05233685 8.2477975 1 6 C1 7.65 1 9.3 1 11 C-0.37562854 9.71034824 -1.70766393 8.37310707 -3 7 C-3 6.34 -3 5.68 -3 5 C-1.68 5 -0.36 5 1 5 C0.67 3.35 0.34 1.7 0 0 Z " fill="#13AFAE" transform="translate(436,350)"/>
<path d="M0 0 C0.66 0.33 1.32 0.66 2 1 C-2.455 7.93 -2.455 7.93 -7 15 C-7.33 13.68 -7.66 12.36 -8 11 C-7.34 11 -6.68 11 -6 11 C-5.67 8.69 -5.34 6.38 -5 4 C-4.01 4 -3.02 4 -2 4 C-1.34 2.68 -0.68 1.36 0 0 Z " fill="#12AFB0" transform="translate(593,905)"/>
<path d="M0 0 C1.32 0.33 2.64 0.66 4 1 C3.566875 1.639375 3.13375 2.27875 2.6875 2.9375 C1.70164811 7.32902206 3.5667569 9.48775931 5.8359375 13.20703125 C6.22007812 13.79871094 6.60421875 14.39039063 7 15 C6.01 15.495 6.01 15.495 5 16 C4.54625 15.195625 4.0925 14.39125 3.625 13.5625 C2.25274335 10.91143428 2.25274335 10.91143428 0 10 C0 6.7 0 3.4 0 0 Z " fill="#13B3AF" transform="translate(925,732)"/>
<path d="M0 0 C2.79872437 2.52788007 4.45773019 4.20411134 5 8 C3.68 8 2.36 8 1 8 C-0.77409808 9.92022703 -0.77409808 9.92022703 -2 12 C-2.99 10.02 -3.98 8.04 -5 6 C-3.68 6.33 -2.36 6.66 -1 7 C-0.25042843 3.52852158 -0.25042843 3.52852158 0 0 Z " fill="#0FB1B1" transform="translate(1141,1078)"/>
<path d="M0 0 C0.33 0.66 0.66 1.32 1 2 C-0.82153171 7.35814198 -3.82141635 11.28570342 -8 15 C-8 10.91518119 -6.29880669 9.15295347 -4 5.8125 C-3.2575 4.72582031 -2.515 3.63914062 -1.75 2.51953125 C-1.1725 1.68808594 -0.595 0.85664062 0 0 Z " fill="#002426" transform="translate(662,800)"/>
<path d="M0 0 C0.33 1.32 0.66 2.64 1 4 C0.01 4.33 -0.98 4.66 -2 5 C-1.69964844 5.54269531 -1.39929688 6.08539062 -1.08984375 6.64453125 C-0.70957031 7.35996094 -0.32929687 8.07539062 0.0625 8.8125 C0.63677734 9.87404297 0.63677734 9.87404297 1.22265625 10.95703125 C2 13 2 13 1 16 C-0.89761129 13.43376728 -2.63943343 10.89322061 -4 8 C-3.32120372 4.60601858 -1.92909332 2.89363998 0 0 Z " fill="#002427" transform="translate(930,730)"/>
<path d="M0 0 C1 2 1 2 0.25 4.5625 C-1 7 -1 7 -4 8 C-4.309375 8.78375 -4.61875 9.5675 -4.9375 10.375 C-6.14208614 13.35103635 -7.33158609 14.31000453 -10 16 C-8.39270035 12.59963241 -6.46281671 9.47943574 -4.4375 6.3125 C-3.81746094 5.33925781 -3.19742188 4.36601563 -2.55859375 3.36328125 C-1 1 -1 1 0 0 Z " fill="#14AFAF" transform="translate(517,966)"/>
<path d="M0 0 C3.23387892 2.95267206 5.22245249 5.87922748 7.25 9.75 C7.77078125 10.73484375 8.2915625 11.7196875 8.828125 12.734375 C9.21484375 13.48203125 9.6015625 14.2296875 10 15 C9.34 15 8.68 15 8 15 C7.67 14.34 7.34 13.68 7 13 C6.01 12.67 5.02 12.34 4 12 C3.0859375 10.29296875 3.0859375 10.29296875 2.375 8.1875 C2.13523437 7.50042969 1.89546875 6.81335938 1.6484375 6.10546875 C1.02561319 4.08316571 0.49024188 2.05809091 0 0 Z " fill="#12ABAA" transform="translate(1014,877)"/>
<path d="M0 0 C0.66 0 1.32 0 2 0 C2 0.66 2 1.32 2 2 C3.65 2.33 5.3 2.66 7 3 C7.33 5.97 7.66 8.94 8 12 C4.02502456 8.59287819 2.13206212 4.67239145 0 0 Z " fill="#12B5B3" transform="translate(989,870)"/>
<path d="M0 0 C1 2 1 2 0.25 4.9375 C-0.89861935 7.75161742 -1.60483069 9.20362301 -4 11 C-4.66 11 -5.32 11 -6 11 C-6 11.66 -6 12.32 -6 13 C-6.66 12.67 -7.32 12.34 -8 12 C-5.36 8.04 -2.72 4.08 0 0 Z " fill="#012226" transform="translate(981,655)"/>
<path d="M0 0 C0.66 0.33 1.32 0.66 2 1 C-0.31 4.63 -2.62 8.26 -5 12 C-5.66 11.01 -6.32 10.02 -7 9 C-6.67 8.34 -6.34 7.68 -6 7 C-5.34 7.33 -4.68 7.66 -4 8 C-4.33 6.68 -4.66 5.36 -5 4 C-3.35 2.68 -1.7 1.36 0 0 Z " fill="#10B6B4" transform="translate(823,616)"/>
<path d="M0 0 C0.66 1.32 1.32 2.64 2 4 C-0.33333333 6.33333333 -2.66666667 8.66666667 -5 11 C-5.69748583 12.31747324 -6.36959957 13.64914193 -7 15 C-7.66 15 -8.32 15 -9 15 C-7.61219205 11.10993227 -5.7847773 8.03441292 -3.375 4.6875 C-2.74335937 3.80449219 -2.11171875 2.92148437 -1.4609375 2.01171875 C-0.97882812 1.34785156 -0.49671875 0.68398438 0 0 Z " fill="#13A8A6" transform="translate(994,585)"/>
<path d="M0 0 C2.33697029 2.33697029 3.27094054 4.49097899 4.625 7.5 C5.29402344 8.96953125 5.29402344 8.96953125 5.9765625 10.46875 C7 13 7 13 7 15 C6.34 15 5.68 15 5 15 C5 14.01 5 13.02 5 12 C4.01 11.67 3.02 11.34 2 11 C1.87625 9.865625 1.7525 8.73125 1.625 7.5625 C1.41875 6.386875 1.2125 5.21125 1 4 C0.34 3.67 -0.32 3.34 -1 3 C-0.67 2.01 -0.34 1.02 0 0 Z " fill="#012125" transform="translate(713,492)"/>
<path d="M0 0 C3.39417765 3.12621626 5.6062718 5.56541027 7 10 C6.01 9.34 5.02 8.68 4 8 C4 7.34 4 6.68 4 6 C3.34 6 2.68 6 2 6 C2 7.65 2 9.3 2 11 C-0.2477975 8.94766315 -1.0022242 7.99332739 -2 5 C-1.01 4.67 -0.02 4.34 1 4 C0.67 2.68 0.34 1.36 0 0 Z " fill="#13ABAB" transform="translate(426,336)"/>
<path d="M0 0 C2 2 2 2 2.125 5.625 C2.08375 6.73875 2.0425 7.8525 2 9 C1.01 9.495 1.01 9.495 0 10 C-1.5625 8.75 -1.5625 8.75 -3 7 C-2.71483972 3.9582904 -1.73969465 2.60954198 0 0 Z " fill="#03C7C8" transform="translate(1130,1063)"/>
<path d="M0 0 C0.33 0 0.66 0 1 0 C1.3636198 4.24223102 0.5393228 6.58168085 -2 10 C-2.66 10 -3.32 10 -4 10 C-4 10.66 -4 11.32 -4 12 C-4.66 12 -5.32 12 -6 12 C-4.43358249 7.69235185 -2.31663844 3.93828536 0 0 Z " fill="#11B0AE" transform="translate(708,965)"/>
<path d="M0 0 C3.17391668 3.00235362 5.71252601 6.19753642 8.25 9.75 C8.95640625 10.73484375 9.6628125 11.7196875 10.390625 12.734375 C10.92171875 13.48203125 11.4528125 14.2296875 12 15 C11.67 15.66 11.34 16.32 11 17 C10.44570313 16.28972656 9.89140625 15.57945312 9.3203125 14.84765625 C8.59585938 13.92855469 7.87140625 13.00945313 7.125 12.0625 C6.40570312 11.14597656 5.68640625 10.22945312 4.9453125 9.28515625 C3.20579164 6.93990515 3.20579164 6.93990515 1 6 C0.375 2.9375 0.375 2.9375 0 0 Z " fill="#13A7A6" transform="translate(610,602)"/>
<path d="M0 0 C3.67033927 3.27708863 5.69281189 6.71522208 8 11 C6.68 12.65 5.36 14.3 4 16 C4 14.68 4 13.36 4 12 C4.66 12 5.32 12 6 12 C4.13433512 8.37206002 4.13433512 8.37206002 1 6 C0.375 2.9375 0.375 2.9375 0 0 Z " fill="#16A9AA" transform="translate(695,726)"/>
<path d="M0 0 C1.8125 0.125 1.8125 0.125 4 1 C5.75 4.0625 5.75 4.0625 7 7 C6 7 5 7 4 7 C3.67 7.99 3.34 8.98 3 10 C0.96564469 6.27034861 0 4.33094958 0 0 Z " fill="#17A5A6" transform="translate(706,474)"/>
<path d="M0 0 C6.27 0 12.54 0 19 0 C18.01 1.98 17.02 3.96 16 6 C15.67 6 15.34 6 15 6 C15 4.35 15 2.7 15 1 C10.05 1 5.1 1 0 1 C0 0.67 0 0.34 0 0 Z " fill="#16B9B7" transform="translate(1096,460)"/>
<path d="M0 0 C3 1 3 1 4.1875 2.875 C5 5 5 5 5 8 C5.99 8.33 6.98 8.66 8 9 C8.33 11.64 8.66 14.28 9 17 C6.25945632 13.67513619 4.57623951 10.16942114 2.8125 6.25 C2.28269531 5.07953125 1.75289062 3.9090625 1.20703125 2.703125 C0.80871094 1.81109375 0.41039062 0.9190625 0 0 Z " fill="#001D1F" transform="translate(880,968)"/>
<path d="M0 0 C3.71080883 4.42442592 6.84577733 9.17403931 10 14 C9.67 14.66 9.34 15.32 9 16 C8.4225 15.2575 7.845 14.515 7.25 13.75 C5.14555662 11.01375276 5.14555662 11.01375276 2.8125 9.125 C0.34627965 6.23356925 0.2859546 3.71740978 0 0 Z " fill="#14A9A6" transform="translate(1036,911)"/>
<path d="M0 0 C0.33 0.66 0.66 1.32 1 2 C0.328125 3.83984375 0.328125 3.83984375 -0.75 5.9375 C-1.26820313 6.97197266 -1.26820313 6.97197266 -1.796875 8.02734375 C-3.00741873 10.01216383 -4.33473155 11.39420542 -6 13 C-6.33 13.66 -6.66 14.32 -7 15 C-7.66 15 -8.32 15 -9 15 C-7.61219205 11.10993227 -5.7847773 8.03441292 -3.375 4.6875 C-2.74335937 3.80449219 -2.11171875 2.92148437 -1.4609375 2.01171875 C-0.97882812 1.34785156 -0.49671875 0.68398438 0 0 Z " fill="#14A4A5" transform="translate(644,780)"/>
<path d="M0 0 C0.66 0 1.32 0 2 0 C1.9071875 1.175625 1.9071875 1.175625 1.8125 2.375 C1.874375 3.24125 1.93625 4.1075 2 5 C2.99 5.66 3.98 6.32 5 7 C4.67 8.32 4.34 9.64 4 11 C0.91910327 8.22719294 -0.68775452 5.93673644 -2 2 C-1.34 2 -0.68 2 0 2 C0 1.34 0 0.68 0 0 Z " fill="#0DB7B5" transform="translate(914,756)"/>
<path d="M0 0 C2 0 4 0 6 0 C4.68775452 3.93673644 3.08089673 6.22719294 0 9 C0 6 0 3 0 0 Z " fill="#0FB9BA" transform="translate(803,641)"/>
<path d="M0 0 C0.625 1.8125 0.625 1.8125 1 4 C0.01 5.485 0.01 5.485 -1 7 C-1.66 7 -2.32 7 -3 7 C-3 8.32 -3 9.64 -3 11 C-3.66 11 -4.32 11 -5 11 C-5 11.66 -5 12.32 -5 13 C-5.66 13 -6.32 13 -7 13 C-5.35821735 8.22390502 -2.73453298 4.20617096 0 0 Z " fill="#11A9A5" transform="translate(1032,525)"/>
<path d="M0 0 C0.99 1.32 1.98 2.64 3 4 C2.2575 4.556875 2.2575 4.556875 1.5 5.125 C-0.59755514 7.74694393 -0.21743835 9.73842472 0 13 C-4 8.25 -4 8.25 -4 6 C-3 5 -2 4 -1 3 C-0.67 2.01 -0.34 1.02 0 0 Z " fill="#0EB2AF" transform="translate(449,368)"/>
<path d="M0 0 C2.4932534 0.99730136 3.77467439 1.65074531 5.25 3.9375 C6 6 6 6 6 9 C6.66 9 7.32 9 8 9 C7.67 9.99 7.34 10.98 7 12 C5.82767315 10.3790787 4.6622923 8.75313167 3.5 7.125 C2.8503125 6.22007812 2.200625 5.31515625 1.53125 4.3828125 C0 2 0 2 0 0 Z " fill="#10B2B2" transform="translate(1049,957)"/>
<path d="M0 0 C1.921875 0.30859375 1.921875 0.30859375 4 1 C5.25 4.0625 5.25 4.0625 6 7 C6.66 7 7.32 7 8 7 C8.33 9.31 8.66 11.62 9 14 C5.25876024 9.7045025 2.65848126 5.00099548 0 0 Z " fill="#14B0AD" transform="translate(651,700)"/>
<path d="M0 0 C0.99 0 1.98 0 3 0 C5 3 5 3 4.625 5.1875 C4.41875 5.785625 4.2125 6.38375 4 7 C1.525 6.01 1.525 6.01 -1 5 C-0.67 3.35 -0.34 1.7 0 0 Z " fill="#02C7C5" transform="translate(878,973)"/>
<path d="M0 0 C0.33 1.32 0.66 2.64 1 4 C-0.21484375 5.921875 -0.21484375 5.921875 -1.9375 7.75 C-2.50339844 8.36359375 -3.06929687 8.9771875 -3.65234375 9.609375 C-4.31943359 10.29773438 -4.31943359 10.29773438 -5 11 C-5.66 10.67 -6.32 10.34 -7 10 C-3.535 5.05 -3.535 5.05 0 0 Z " fill="#10AAA9" transform="translate(628,804)"/>
<path d="M0 0 C1.32 0 2.64 0 4 0 C4.69685498 1.6210103 5.38222861 3.24696066 6.0625 4.875 C6.63677734 6.23238281 6.63677734 6.23238281 7.22265625 7.6171875 C8 10 8 10 7 12 C5.83061933 10.18924982 4.66456267 8.37635257 3.5 6.5625 C2.8503125 5.55316406 2.200625 4.54382813 1.53125 3.50390625 C0 1 0 1 0 0 Z " fill="#12B4B5" transform="translate(629,665)"/>
<path d="M0 0 C-1.31224548 3.93673644 -2.91910327 6.22719294 -6 9 C-6.8125 7.3125 -6.8125 7.3125 -7 5 C-2.79545455 0 -2.79545455 0 0 0 Z " fill="#0EBABB" transform="translate(1049,555)"/>
<path d="M0 0 C2.0625 1.75 2.0625 1.75 4 4 C4 7.03822316 2.99700998 8.00326184 0.9375 10.25 C0.298125 10.8275 -0.34125 11.405 -1 12 C-0.9278125 11.30132813 -0.855625 10.60265625 -0.78125 9.8828125 C-0.6884375 8.97273437 -0.595625 8.06265625 -0.5 7.125 C-0.4071875 6.22007812 -0.314375 5.31515625 -0.21875 4.3828125 C0.03047295 2.06686789 0.03047295 2.06686789 0 0 Z " fill="#001E24" transform="translate(670,731)"/>
<path d="M0 0 C3.63559661 3.43361902 6.36113346 6.7973607 9 11 C8.67 11.66 8.34 12.32 8 13 C6.5 11.625 6.5 11.625 5 10 C5 9.34 5 8.68 5 8 C4.01 8 3.02 8 2 8 C1.34 5.36 0.68 2.72 0 0 Z " fill="#14AAA9" transform="translate(552,518)"/>
<path d="M0 0 C4.62 0 9.24 0 14 0 C12 6 12 6 10 7 C10.33 5.02 10.66 3.04 11 1 C7.37 1 3.74 1 0 1 C0 0.67 0 0.34 0 0 Z " fill="#001D20" transform="translate(1037,494)"/>
<path d="M0 0 C3.24298429 1.08099476 3.81612526 1.65626616 5.75 4.3125 C6.19859375 4.90675781 6.6471875 5.50101563 7.109375 6.11328125 C8 8 8 8 7.640625 10.23046875 C7.42921875 10.81441406 7.2178125 11.39835937 7 12 C5.83061933 10.18924982 4.66456267 8.37635257 3.5 6.5625 C2.8503125 5.55316406 2.200625 4.54382812 1.53125 3.50390625 C0 1 0 1 0 0 Z " fill="#001C1E" transform="translate(1184,1145)"/>
<path d="M0 0 C0.66 0.33 1.32 0.66 2 1 C2 3.97 2 6.94 2 10 C-0.25245881 7.31158141 -1.88213958 5.35358125 -3 2 C-2.01 2 -1.02 2 0 2 C0 1.34 0 0.68 0 0 Z " fill="#0CB8B8" transform="translate(1045,945)"/>
<path d="M0 0 C3.875 0.875 3.875 0.875 5 2 C5.99 2.33 6.98 2.66 8 3 C7.67 3.66 7.34 4.32 7 5 C6.34 5 5.68 5 5 5 C4.67 5.99 4.34 6.98 4 8 C0 2.25 0 2.25 0 0 Z " fill="#0DB5B3" transform="translate(816,889)"/>
<path d="M0 0 C0.66 0.99 1.32 1.98 2 3 C0.625 5.5 0.625 5.5 -1 8 C-1.66 8 -2.32 8 -3 8 C-3.33 8.66 -3.66 9.32 -4 10 C-4 5.28093812 -2.71245796 3.72962969 0 0 Z " fill="#011718" transform="translate(644,828)"/>
<path d="M0 0 C1.875 0.125 1.875 0.125 4 1 C5.125 4 5.125 4 6 7 C6.66 7.33 7.32 7.66 8 8 C7.67 8.99 7.34 9.98 7 11 C5.66104368 9.33784732 4.32869858 7.67036393 3 6 C2.4225 5.278125 1.845 4.55625 1.25 3.8125 C0 2 0 2 0 0 Z " fill="#13B3B3" transform="translate(937,794)"/>
<path d="M0 0 C0.66 0.33 1.32 0.66 2 1 C0.68775452 4.93673644 -0.91910327 7.22719294 -4 10 C-4.66 9.67 -5.32 9.34 -6 9 C-4.02 6.03 -2.04 3.06 0 0 Z " fill="#001C20" transform="translate(692,753)"/>
<path d="M0 0 C0.99 0.33 1.98 0.66 3 1 C3 1.66 3 2.32 3 3 C3.99 3.33 4.98 3.66 6 4 C5.67 4.99 5.34 5.98 5 7 C4.01 7 3.02 7 2 7 C0 4 0 4 0 0 Z " fill="#0FB9B7" transform="translate(1185,1152)"/>
<path d="M0 0 C0.66 0.33 1.32 0.66 2 1 C-0.31 4.3 -2.62 7.6 -5 11 C-5.33 10.01 -5.66 9.02 -6 8 C-5.67 7.34 -5.34 6.68 -5 6 C-4.34 6 -3.68 6 -3 6 C-2.690625 5.195625 -2.38125 4.39125 -2.0625 3.5625 C-1 1 -1 1 0 0 Z " fill="#002124" transform="translate(656,760)"/>
<path d="M0 0 C0.66 0.33 1.32 0.66 2 1 C-0.31 4.63 -2.62 8.26 -5 12 C-5.33 11.01 -5.66 10.02 -6 9 C-5.67 8.34 -5.34 7.68 -5 7 C-4.34 7 -3.68 7 -3 7 C-2.87625 6.21625 -2.7525 5.4325 -2.625 4.625 C-2 2 -2 2 0 0 Z " fill="#001A1C" transform="translate(992,585)"/>
<path d="M0 0 C1.32 0.33 2.64 0.66 4 1 C1.03 4.96 1.03 4.96 -2 9 C-3 5 -3 5 -1.5625 2.25 C-1.046875 1.5075 -0.53125 0.765 0 0 Z " fill="#11B7B3" transform="translate(1037,568)"/>
<path d="M0 0 C2.6486859 3.19668988 4.93992341 6.39486597 7 10 C6.34 10 5.68 10 5 10 C4 9 3 8 2 7 C1.34 7 0.68 7 0 7 C-1.04449911 3.86650268 -0.93423645 3.01031744 0 0 Z " fill="#11B1AE" transform="translate(544,506)"/>
<path d="M0 0 C1 2 1 2 0.25 4.4375 C-0.94131051 6.87968654 -1.88488303 8.3255324 -4 10 C-4.66 10 -5.32 10 -6 10 C-4.6302836 6.00499382 -2.74277578 3.19990508 0 0 Z " fill="#012428" transform="translate(1093,492)"/>
<path d="M0 0 C1.875 0.25 1.875 0.25 4 1 C5.25 3.0625 5.25 3.0625 6 5 C5.01 5.495 5.01 5.495 4 6 C3.67 6.66 3.34 7.32 3 8 C0.37613513 4.93882432 0 4.26826873 0 0 Z " fill="#169C9A" transform="translate(402,304)"/>
<path d="M0 0 C0.66 0 1.32 0 2 0 C2.66 1.65 3.32 3.3 4 5 C3.01 5.99 2.02 6.98 1 8 C0.01 6.02 -0.98 4.04 -2 2 C-1.34 2 -0.68 2 0 2 C0 1.34 0 0.68 0 0 Z " fill="#13AFAF" transform="translate(1190,1157)"/>
<path d="M0 0 C2.0245738 1.93254772 3.42105792 3.63158688 5 6 C4.67 6.99 4.34 7.98 4 9 C3.34 8.67 2.68 8.34 2 8 C2 8.66 2 9.32 2 10 C1.34 10 0.68 10 0 10 C-0.33 9.01 -0.66 8.02 -1 7 C-0.01 7 0.98 7 2 7 C1.34 4.69 0.68 2.38 0 0 Z " fill="#13AFAD" transform="translate(1175,1132)"/>
<path d="M0 0 C2.46800047 1.15173355 4.04783565 2.04783565 6 4 C5.67 4.66 5.34 5.32 5 6 C5.66 6.33 6.32 6.66 7 7 C6.67 7.99 6.34 8.98 6 10 C4.99421411 8.71283353 3.99553202 7.42011342 3 6.125 C2.443125 5.40570312 1.88625 4.68640625 1.3125 3.9453125 C0 2 0 2 0 0 Z " fill="#11B2B0" transform="translate(1094,1023)"/>
<path d="M0 0 C2.74277578 3.19990508 4.6302836 6.00499382 6 10 C5.34 10 4.68 10 4 10 C3.34 9.01 2.68 8.02 2 7 C1.34 7 0.68 7 0 7 C0 4.69 0 2.38 0 0 Z " fill="#0FB0AD" transform="translate(1101,1014)"/>
<path d="M0 0 C1.98 0.66 3.96 1.32 6 2 C5.67 3.98 5.34 5.96 5 8 C2.74754119 5.31158141 1.11786042 3.35358125 0 0 Z " fill="#0CB8B7" transform="translate(870,968)"/>
<path d="M0 0 C1.32 0 2.64 0 4 0 C4.66 2.64 5.32 5.28 6 8 C6.66 8 7.32 8 8 8 C7.67 8.99 7.34 9.98 7 11 C5.83051998 9.35616456 4.6644855 7.70987731 3.5 6.0625 C2.8503125 5.14597656 2.200625 4.22945312 1.53125 3.28515625 C0 1 0 1 0 0 Z " fill="#12ADA9" transform="translate(1025,923)"/>
<path d="M0 0 C0.33 0 0.66 0 1 0 C1.3125 2.25 1.3125 2.25 1 5 C-1.5 7.3125 -1.5 7.3125 -4 9 C-4 4.98525763 -2.33218233 3.18024863 0 0 Z " fill="#11AEAB" transform="translate(932,682)"/>
<path d="M0 0 C1.32 0 2.64 0 4 0 C5.85776765 3.13498292 6.20140476 5.37471432 6 9 C3.59927045 6.11912454 1.52708963 3.43595166 0 0 Z " fill="#10B3B3" transform="translate(613,640)"/>
<path d="M0 0 C0.71484375 1.703125 0.71484375 1.703125 1 4 C-0.43359375 6.359375 -0.43359375 6.359375 -2.4375 8.75 C-3.42556641 9.94882812 -3.42556641 9.94882812 -4.43359375 11.171875 C-5.20896484 12.07679688 -5.20896484 12.07679688 -6 13 C-6 9.32965255 -4.9247108 7.9000569 -3 4.8125 C-2.443125 3.91144531 -1.88625 3.01039063 -1.3125 2.08203125 C-0.6628125 1.05142578 -0.6628125 1.05142578 0 0 Z " fill="#002324" transform="translate(849,577)"/>
<path d="M0 0 C2.46800047 1.15173355 4.04783565 2.04783565 6 4 C6.39764263 5.98821313 6.73775349 7.98944339 7 10 C3.66442368 7.0094833 1.84916079 4.06815373 0 0 Z " fill="#001A1E" transform="translate(478,409)"/>
<path d="M0 0 C2.40072955 2.88087546 4.47291037 5.56404834 6 9 C5.01 9.495 5.01 9.495 4 10 C3.67 9.01 3.34 8.02 3 7 C2.34 6.67 1.68 6.34 1 6 C0.67 6.66 0.34 7.32 0 8 C0 5.33333333 0 2.66666667 0 0 Z " fill="#0DAFAE" transform="translate(1113,1033)"/>
<path d="M0 0 C0.33 1.32 0.66 2.64 1 4 C3.31 4.33 5.62 4.66 8 5 C8 5.33 8 5.66 8 6 C4.37 6 0.74 6 -3 6 C-1 1 -1 1 0 0 Z " fill="#18B1AE" transform="translate(488,1008)"/>
<path d="M0 0 C0 3.96018245 -1.18721244 6.5039097 -3 10 C-5.109375 10.7109375 -5.109375 10.7109375 -7 11 C-6.21258141 9.53936857 -5.4199095 8.08156827 -4.625 6.625 C-4.18414063 5.81289063 -3.74328125 5.00078125 -3.2890625 4.1640625 C-2 2 -2 2 0 0 Z " fill="#14A3A2" transform="translate(664,751)"/>
<path d="M0 0 C0.66 0.33 1.32 0.66 2 1 C0.35 3.64 -1.3 6.28 -3 9 C-3.66 8.01 -4.32 7.02 -5 6 C-4.34 4.68 -3.68 3.36 -3 2 C-2.34 2 -1.68 2 -1 2 C-0.67 1.34 -0.34 0.68 0 0 Z " fill="#0FBABB" transform="translate(697,742)"/>
<path d="M0 0 C1 2 1 2 0.375 4.4375 C-1.27706844 7.51635481 -2.91798591 8.45899296 -6 10 C-4.6302836 6.00499382 -2.74277578 3.19990508 0 0 Z " fill="#002427" transform="translate(937,720)"/>
<path d="M0 0 C0.99 0.33 1.98 0.66 3 1 C1.02 3.97 -0.96 6.94 -3 10 C-4 6 -4 6 -3 3 C-2.01 3 -1.02 3 0 3 C0 2.01 0 1.02 0 0 Z " fill="#14B2AF" transform="translate(941,710)"/>
<path d="M0 0 C1.33895632 1.66215268 2.67130142 3.32963607 4 5 C4.5775 5.721875 5.155 6.44375 5.75 7.1875 C7 9 7 9 7 11 C6.01 10.67 5.02 10.34 4 10 C2.8125 6.9375 2.8125 6.9375 2 4 C1.34 4 0.68 4 0 4 C0 2.68 0 1.36 0 0 Z " fill="#15A3A0" transform="translate(640,645)"/>
<path d="M0 0 C0.33 0.66 0.66 1.32 1 2 C-1.19566645 8.47143795 -1.19566645 8.47143795 -4.1875 10.4375 C-5.0846875 10.7159375 -5.0846875 10.7159375 -6 11 C-4.54955729 6.89041233 -2.48889248 3.56741255 0 0 Z " fill="#14A7A7" transform="translate(969,624)"/>
<path d="M0 0 C2.96404505 2.80804268 5.44499019 5.18315774 7 9 C6.34 9 5.68 9 5 9 C5 8.34 5 7.68 5 7 C3.35 6.67 1.7 6.34 0 6 C0 4.02 0 2.04 0 0 Z " fill="#12ABAE" transform="translate(562,533)"/>
<path d="M0 0 C3.08089673 2.77280706 4.68775452 5.06326356 6 9 C5.01 8.67 4.02 8.34 3 8 C3 7.34 3 6.68 3 6 C2.01 5.67 1.02 5.34 0 5 C0 3.35 0 1.7 0 0 Z " fill="#11A8A8" transform="translate(1163,1113)"/>
<path d="M0 0 C3.68006822 3.38168431 5.9785845 6.42521756 8 11 C7.34 11 6.68 11 6 11 C4.97388051 9.34928604 3.97691857 7.68029994 3 6 C2.443125 5.46375 1.88625 4.9275 1.3125 4.375 C0 3 0 3 0 0 Z " fill="#002121" transform="translate(1006,897)"/>
<path d="M0 0 C0.66 0 1.32 0 2 0 C0.6302836 3.99500618 -1.25722422 6.80009492 -4 10 C-4 8.35 -4 6.7 -4 5 C-3.34 5 -2.68 5 -2 5 C-2 4.01 -2 3.02 -2 2 C-1.34 2 -0.68 2 0 2 C0 1.34 0 0.68 0 0 Z " fill="#13B3B3" transform="translate(607,882)"/>
<path d="M0 0 C0.99 0.33 1.98 0.66 3 1 C1.02 3.97 -0.96 6.94 -3 10 C-3.33 9.01 -3.66 8.02 -4 7 C-3.67 6.34 -3.34 5.68 -3 5 C-2.34 5 -1.68 5 -1 5 C-0.67 3.35 -0.34 1.7 0 0 Z " fill="#001C1E" transform="translate(780,844)"/>
<path d="M0 0 C0.99 0.33 1.98 0.66 3 1 C3.6875 3.0625 3.6875 3.0625 4 5 C0.25 8 0.25 8 -2 8 C-1.67 7.4225 -1.34 6.845 -1 6.25 C0.27075898 3.80116138 0.27075898 3.80116138 0 0 Z " fill="#10B5B2" transform="translate(673,734)"/>
<path d="M0 0 C0.33 0.66 0.66 1.32 1 2 C0.06553465 4.03144641 -0.93224776 6.03533587 -2 8 C-2.66 8 -3.32 8 -4 8 C-4 8.66 -4 9.32 -4 10 C-4.66 10 -5.32 10 -6 10 C-4.34832443 6.4213696 -2.21713508 3.25179812 0 0 Z " fill="#002A2A" transform="translate(1035,576)"/>
<path d="M0 0 C0.99 0.33 1.98 0.66 3 1 C3 1.66 3 2.32 3 3 C3.99 3 4.98 3 6 3 C6.625 4.875 6.625 4.875 7 7 C6.34 7.66 5.68 8.32 5 9 C3.35 6.03 1.7 3.06 0 0 Z " fill="#10AEB0" transform="translate(557,552)"/>
<path d="M0 0 C0.66 0.99 1.32 1.98 2 3 C1.01 4.485 1.01 4.485 0 6 C-0.66 6 -1.32 6 -2 6 C-2.33 7.65 -2.66 9.3 -3 11 C-3.66 11 -4.32 11 -5 11 C-3.77472971 6.94718288 -2.30119506 3.55639236 0 0 Z " fill="#12A9AA" transform="translate(829,548)"/>
<path d="M0 0 C-1.09068668 3.77545388 -1.9083091 6.47043472 -5 9 C-5.36666667 3.5 -5.36666667 3.5 -3.625 1.125 C-2 0 -2 0 0 0 Z " fill="#11B8B4" transform="translate(727,1004)"/>
<path d="M0 0 C0.33 0.99 0.66 1.98 1 3 C1.66 3.33 2.32 3.66 3 4 C2.360625 4.61875 1.72125 5.2375 1.0625 5.875 C-1.03883584 7.82597612 -1.03883584 7.82597612 -2 10 C-2.66 10 -3.32 10 -4 10 C-2.8905928 6.51329166 -1.73662334 3.22515763 0 0 Z " fill="#002526" transform="translate(745,971)"/>
<path d="M0 0 C0.66 0.33 1.32 0.66 2 1 C0.35 4.3 -1.3 7.6 -3 11 C-4.25541557 7.23375329 -3.37061958 5.62811066 -2 2 C-1.34 2 -0.68 2 0 2 C0 1.34 0 0.68 0 0 Z " fill="#14B4B5" transform="translate(745,968)"/>
<path d="M0 0 C0.99 0.33 1.98 0.66 3 1 C1.68775452 4.93673644 0.08089673 7.22719294 -3 10 C-2.67 8.35 -2.34 6.7 -2 5 C-1.34 5 -0.68 5 0 5 C-0.2784375 4.0409375 -0.2784375 4.0409375 -0.5625 3.0625 C-0.706875 2.381875 -0.85125 1.70125 -1 1 C-0.67 0.67 -0.34 0.34 0 0 Z " fill="#0FB7B7" transform="translate(551,968)"/>
<path d="M0 0 C0.33 1.32 0.66 2.64 1 4 C-1.4375 6.75 -1.4375 6.75 -4 9 C-4.66 8.67 -5.32 8.34 -6 8 C-4.02 5.36 -2.04 2.72 0 0 Z " fill="#12A8A8" transform="translate(547,923)"/>
<path d="M0 0 C1.98 0.66 3.96 1.32 6 2 C6 3.98 6 5.96 6 8 C1.125 3.375 1.125 3.375 0 0 Z " fill="#14B2B2" transform="translate(1014,907)"/>
<path d="M0 0 C1 2 1 2 0.3125 4.5 C-1.15567038 7.29651501 -2.09303901 7.93411431 -5 9 C-3.7508258 5.54074837 -2.32472205 2.85306797 0 0 Z " fill="#002021" transform="translate(600,897)"/>
<path d="M0 0 C0.33 0 0.66 0 1 0 C1.3125 2.75 1.3125 2.75 1 6 C-1.5 8.375 -1.5 8.375 -4 10 C-2.8905928 6.51329166 -1.73662334 3.22515763 0 0 Z " fill="#002628" transform="translate(787,893)"/>
<path d="M0 0 C2.475 0.495 2.475 0.495 5 1 C5.33 3.31 5.66 5.62 6 8 C3.33264727 5.51047079 1.44253657 3.36591866 0 0 Z " fill="#12B2B3" transform="translate(926,779)"/>
<path d="M0 0 C1 2 1 2 0.25 4.4375 C-0.93098981 6.85852911 -1.9831559 8.25818009 -4 10 C-4.66 9.67 -5.32 9.34 -6 9 C-4.02 6.03 -2.04 3.06 0 0 Z " fill="#012B2D" transform="translate(699,742)"/>
<path d="M0 0 C0.66 0 1.32 0 2 0 C2 0.99 2 1.98 2 3 C2.99 3.33 3.98 3.66 5 4 C5 5.98 5 7.96 5 10 C2.35534962 6.8745041 1.15585285 3.91211733 0 0 Z " fill="#12B3B0" transform="translate(785,630)"/>
<path d="M0 0 C0.98120464 3.05263664 0.98120464 4.94736336 0 8 C-0.66 8 -1.32 8 -2 8 C-2 8.66 -2 9.32 -2 10 C-2.66 10 -3.32 10 -4 10 C-2.8905928 6.51329166 -1.73662334 3.22515763 0 0 Z " fill="#13A0A0" transform="translate(811,581)"/>
<path d="M0 0 C1 2 1 2 0.9375 3.8125 C-0.52058124 7.21468955 -3.08270714 8.76547781 -6 11 C-4.54955729 6.89041233 -2.48889248 3.56741255 0 0 Z " fill="#13A4A3" transform="translate(1001,574)"/>
<path d="M0 0 C1.32 0.33 2.64 0.66 4 1 C1.525 4.465 1.525 4.465 -1 8 C-2 6 -2 6 -1.0625 2.875 C-0.5365625 1.451875 -0.5365625 1.451875 0 0 Z " fill="#13B2AF" transform="translate(1069,521)"/>
<path d="M0 0 C0.33 1.32 0.66 2.64 1 4 C0.34 4 -0.32 4 -1 4 C-1 5.65 -1 7.3 -1 9 C-2.98 9.99 -2.98 9.99 -5 11 C-3.55049545 7.2089881 -1.84827434 3.6125362 0 0 Z " fill="#16A9A8" transform="translate(856,498)"/>
<path d="M0 0 C0.66 0 1.32 0 2 0 C2 0.66 2 1.32 2 2 C2.99 2.33 3.98 2.66 5 3 C6.1875 6.5625 6.1875 6.5625 7 10 C3.66442368 7.0094833 1.84916079 4.06815373 0 0 Z " fill="#15ADAE" transform="translate(519,492)"/>
<path d="M0 0 C2.79872437 2.52788007 4.45773019 4.20411134 5 8 C4.34 8 3.68 8 3 8 C3 7.34 3 6.68 3 6 C2.01 5.67 1.02 5.34 0 5 C0 3.35 0 1.7 0 0 Z " fill="#07C4C3" transform="translate(414,321)"/>
<path d="M0 0 C2.83374881 3.20336822 3.5205537 5.78087253 4 10 C2.68 9.67 1.36 9.34 0 9 C0.66 8.67 1.32 8.34 2 8 C1.67 7.4225 1.34 6.845 1 6.25 C0 4 0 4 0 0 Z " fill="#1B9B9A" transform="translate(890,989)"/>
<path d="M0 0 C0.99 0.33 1.98 0.66 3 1 C0.525 5.455 0.525 5.455 -2 10 C-3.39195915 5.82412255 -1.82323219 3.86525224 0 0 Z " fill="#12B3B2" transform="translate(738,980)"/>
<path d="M0 0 C0.66 0 1.32 0 2 0 C1.50168276 3.68754757 0.89932357 5.60490662 -2 8 C-2.125 5.125 -2.125 5.125 -2 2 C-1.34 1.34 -0.68 0.68 0 0 Z " fill="#0FB7B2" transform="translate(779,904)"/>
<path d="M0 0 C0.99 0.33 1.98 0.66 3 1 C4.1875 4.0625 4.1875 4.0625 5 7 C5.66 7 6.32 7 7 7 C6.67 7.99 6.34 8.98 6 10 C4.99421411 8.71283353 3.99553202 7.42011342 3 6.125 C2.443125 5.40570312 1.88625 4.68640625 1.3125 3.9453125 C0 2 0 2 0 0 Z " fill="#18A8A8" transform="translate(826,904)"/>
<path d="M0 0 C2.74277578 3.19990508 4.6302836 6.00499382 6 10 C3.5625 8.9375 3.5625 8.9375 1 7 C0.1875 3.3125 0.1875 3.3125 0 0 Z " fill="#10AAAA" transform="translate(984,829)"/>
<path d="M0 0 C1.32 0 2.64 0 4 0 C4.33 2.64 4.66 5.28 5 8 C2.27573689 5.64722731 1.1858237 3.37503669 0 0 Z " fill="#12B3AF" transform="translate(959,826)"/>
<path d="M0 0 C0.99 0.33 1.98 0.66 3 1 C1.35 3.64 -0.3 6.28 -2 9 C-2.33 7.68 -2.66 6.36 -3 5 C-2.34 5 -1.68 5 -1 5 C-0.67 3.35 -0.34 1.7 0 0 Z " fill="#12B6B6" transform="translate(646,820)"/>
<path d="M0 0 C1.98 0.495 1.98 0.495 4 1 C2.69593116 3.01920337 1.36176581 5.01924973 0 7 C-0.33 7 -0.66 7 -1 7 C-0.67 4.69 -0.34 2.38 0 0 Z " fill="#0FB4B4" transform="translate(660,797)"/>
<path d="M0 0 C0.33 0.99 0.66 1.98 1 3 C0.00390625 4.82421875 0.00390625 4.82421875 -1.4375 6.6875 C-1.91058594 7.31011719 -2.38367188 7.93273437 -2.87109375 8.57421875 C-3.24363281 9.04472656 -3.61617187 9.51523437 -4 10 C-4.66 9.67 -5.32 9.34 -6 9 C-4.02 6.03 -2.04 3.06 0 0 Z " fill="#002121" transform="translate(967,676)"/>
<path d="M0 0 C0.66 0 1.32 0 2 0 C2 0.99 2 1.98 2 3 C3.32 3.33 4.64 3.66 6 4 C5.67 5.32 5.34 6.64 5 8 C4.34 8 3.68 8 3 8 C0 2.25 0 2.25 0 0 Z " fill="#1AAAA9" transform="translate(795,649)"/>
<path d="M0 0 C0.33 1.32 0.66 2.64 1 4 C0.01 4.495 0.01 4.495 -1 5 C-2.13350534 7.01669827 -2.13350534 7.01669827 -3 9 C-3.66 9 -4.32 9 -5 9 C-3.7508258 5.54074837 -2.32472205 2.85306797 0 0 Z " fill="#012D30" transform="translate(994,636)"/>
<path d="M0 0 C1.65 0 3.3 0 5 0 C3.68 2.31 2.36 4.62 1 7 C0.31292445 4.50935112 0 2.62113708 0 0 Z " fill="#10B4B4" transform="translate(996,626)"/>
<path d="M0 0 C0.99 0 1.98 0 3 0 C1.68775452 3.93673644 0.08089673 6.22719294 -3 9 C-2.01 6.03 -1.02 3.06 0 0 Z " fill="#13B4B2" transform="translate(1020,593)"/>
<path d="M0 0 C0.99 0 1.98 0 3 0 C1.8141763 3.37503669 0.72426311 5.64722731 -2 8 C-2.125 5.125 -2.125 5.125 -2 2 C-1.34 1.34 -0.68 0.68 0 0 Z " fill="#12B8B3" transform="translate(1102,474)"/>
<path d="M0 0 C0.99 0 1.98 0 3 0 C3.33 1.65 3.66 3.3 4 5 C2.68 5 1.36 5 0 5 C0 3.35 0 1.7 0 0 Z " fill="#08BFC1" transform="translate(1173,1134)"/>
<path d="M0 0 C1.32 0.33 2.64 0.66 4 1 C5.25 3.5625 5.25 3.5625 6 6 C5.34 6.66 4.68 7.32 4 8 C2.68 5.36 1.36 2.72 0 0 Z " fill="#02C8C9" transform="translate(1162,1118)"/>
<path d="M0 0 C2.27505004 2.16671432 4.23575092 4.39563231 6 7 C6 7.66 6 8.32 6 9 C4.68 8.67 3.36 8.34 2 8 C1.34 5.36 0.68 2.72 0 0 Z " fill="#00262A" transform="translate(1080,1004)"/>
<path d="M0 0 C1 3 1 3 0.25 5.625 C-1 8 -1 8 -4 9 C-2.80100302 5.9168649 -1.52299523 2.93720508 0 0 Z " fill="#12A2A1" transform="translate(713,956)"/>
<path d="M0 0 C1.32 0 2.64 0 4 0 C2.8141763 3.37503669 1.72426311 5.64722731 -1 8 C-1 6.68 -1 5.36 -1 4 C-0.34 4 0.32 4 1 4 C0.67 2.68 0.34 1.36 0 0 Z " fill="#11B0AE" transform="translate(572,934)"/>
<path d="M0 0 C0.33 0.66 0.66 1.32 1 2 C0.22265625 3.7265625 0.22265625 3.7265625 -0.9375 5.625 C-1.618125 6.73875 -2.29875 7.8525 -3 9 C-3.66 9 -4.32 9 -5 9 C-3.7508258 5.54074837 -2.32472205 2.85306797 0 0 Z " fill="#14A59F" transform="translate(634,795)"/>
<path d="M0 0 C0.66 0 1.32 0 2 0 C0.8141763 3.37503669 -0.27573689 5.64722731 -3 8 C-2.67 6.02 -2.34 4.04 -2 2 C-1.34 2 -0.68 2 0 2 C0 1.34 0 0.68 0 0 Z " fill="#001B21" transform="translate(909,714)"/>
<path d="M0 0 C2.96865509 2.54456151 4.3619751 5.48994665 6 9 C5.34 9 4.68 9 4 9 C4 8.34 4 7.68 4 7 C3.34 7 2.68 7 2 7 C0 4 0 4 0 0 Z " fill="#002524" transform="translate(585,597)"/>
<path d="M0 0 C0.99 0.33 1.98 0.66 3 1 C3.73046875 3.06640625 3.73046875 3.06640625 4.1875 5.5625 C4.34605469 6.38878906 4.50460937 7.21507812 4.66796875 8.06640625 C4.77753906 8.70449219 4.88710938 9.34257813 5 10 C2.35534962 6.8745041 1.15585285 3.91211733 0 0 Z " fill="#12ADA7" transform="translate(750,564)"/>
<path d="M0 0 C2.66735273 2.48952921 4.55746343 4.63408134 6 8 C4.125 7.75 4.125 7.75 2 7 C0.27898465 4.41847698 0 3.15081975 0 0 Z " fill="#00191D" transform="translate(490,448)"/>
<path d="M0 0 C0.66 0.33 1.32 0.66 2 1 C2 1.66 2 2.32 2 3 C2.66 3 3.32 3 4 3 C3.67 3.66 3.34 4.32 3 5 C1.68 5 0.36 5 -1 5 C-1.33 4.01 -1.66 3.02 -2 2 C-1.34 1.34 -0.68 0.68 0 0 Z " fill="#03C7CB" transform="translate(1159,1110)"/>
<path d="M0 0 C1.32 0.33 2.64 0.66 4 1 C3.67 2.65 3.34 4.3 3 6 C2.01 5.67 1.02 5.34 0 5 C0 3.35 0 1.7 0 0 Z " fill="#01C6C9" transform="translate(1151,1100)"/>
<path d="M0 0 C3.08089673 2.77280706 4.68775452 5.06326356 6 9 C5.01 8.67 4.02 8.34 3 8 C3 7.01 3 6.02 3 5 C2.34 5 1.68 5 1 5 C0.67 3.35 0.34 1.7 0 0 Z " fill="#002326" transform="translate(1133,1081)"/>
<path d="M0 0 C1.24546405 2.49092811 0.7767578 3.41080733 0 6 C-0.66 6 -1.32 6 -2 6 C-2.33 6.99 -2.66 7.98 -3 9 C-3.66 8.67 -4.32 8.34 -5 8 C-3.35 5.36 -1.7 2.72 0 0 Z " fill="#12A5A5" transform="translate(725,937)"/>
<path d="M0 0 C0.99 0.33 1.98 0.66 3 1 C1.68 3.31 0.36 5.62 -1 8 C-1.93065133 5.39417629 -2.14917407 4.35801776 -1.0625 1.75 C-0.711875 1.1725 -0.36125 0.595 0 0 Z " fill="#001C1F" transform="translate(732,921)"/>
<path d="M0 0 C3.08089673 2.77280706 4.68775452 5.06326356 6 9 C4.125 8.4375 4.125 8.4375 2 7 C0.75 3.375 0.75 3.375 0 0 Z " fill="#002B2B" transform="translate(831,913)"/>
<path d="M0 0 C0.66 0 1.32 0 2 0 C2 0.99 2 1.98 2 3 C1.01 3.66 0.02 4.32 -1 5 C-1.33 5.99 -1.66 6.98 -2 8 C-2.66 8 -3.32 8 -4 8 C-2.87548273 5.0280615 -1.77706209 2.66559313 0 0 Z " fill="#129F9E" transform="translate(757,885)"/>
<path d="M0 0 C2.66735273 2.48952921 4.55746343 4.63408134 6 8 C4.68 8 3.36 8 2 8 C1.34 5.36 0.68 2.72 0 0 Z " fill="#00272A" transform="translate(970,844)"/>
<path d="M0 0 C1 2 1 2 0.3125 4.5 C-1.15567038 7.29651501 -2.09303901 7.93411431 -5 9 C-3.7508258 5.54074837 -2.32472205 2.85306797 0 0 Z " fill="#002627" transform="translate(1024,592)"/>
<path d="M0 0 C0.33 0 0.66 0 1 0 C1.3125 2.8125 1.3125 2.8125 1 6 C-1.5 7.875 -1.5 7.875 -4 9 C-2.80100302 5.9168649 -1.52299523 2.93720508 0 0 Z " fill="#13A6A4" transform="translate(806,591)"/>
<path d="M0 0 C1.32 0.33 2.64 0.66 4 1 C4 3.31 4 5.62 4 8 C1.84622436 5.37801226 0.59927826 3.35595828 0 0 Z " fill="#14B7B7" transform="translate(745,554)"/>
<path d="M0 0 C0.8125 1.6875 0.8125 1.6875 1 4 C-1.4375 6.75 -1.4375 6.75 -4 9 C-4 5.00095031 -2.27413033 3.19799578 0 0 Z " fill="#002427" transform="translate(1115,460)"/>
</svg>
